<svg id="Layer_1" viewBox="0 0 24 24" xmlns="http://www.w3.org/2000/svg" data-name="Layer 1"><path d="m20.528 9.029-2.028 2.971c-.312.46-.938.574-1.389.266-.457-.311-.576-.932-.266-1.389l2.104-3.083c-.603-.445-1.233-.888-1.88-1.326l-2.07 3.033c-.312.46-.938.574-1.389.266-.457-.31-.576-.932-.266-1.389l2.055-3.011c-.406-.262-.813-.523-1.218-.78l-.322-.204c-.566-.359-1.236-.475-1.888-.327-.649.147-1.201.54-1.553 1.104-.853 1.368-2.287 2.841-3.42 2.841-1.69 0-2.98-.721-3.944-2.204-.406-.624-1.155-.901-1.868-.691-.71.21-1.188.851-1.188 1.594v7.302c0 1.474.81 2.75 2 3.444v1.556c0 .553.448 1 1 1s1-.447 1-1v-1s0 0 0 0h2v1c0 .553.448 1 1 1s1-.447 1-1v-1h4v1c0 .553.448 1 1 1s1-.447 1-1v-1h2v1c0 .553.448 1 1 1s1-.447 1-1v-1h2s0 0 0 0v1c0 .553.448 1 1 1s1-.447 1-1v-1.556c1.19-.694 2-1.97 2-3.444 0-1.562-1.428-3.267-3.472-4.971z"/></svg>