<?xml version="1.0" encoding="UTF-8"?>
<svg id="_레이어_1" data-name="레이어 1" xmlns="http://www.w3.org/2000/svg" viewBox="0 0 64 64">
  <defs>
    <style>
      .cls-1 {
        fill: #faf5f6;
      }
    </style>
  </defs>
  <circle class="cls-1" cx="32" cy="32" r="32"/>
  <path id="assist" d="M55.47,48.545c2.487-4.307-4.472-15.056-11.19-24.794l-.455-.66c-.8-1.161-2.008-2.084-3.403-2.602-1.389-.515-2.796-.562-3.957-.135-2.816,1.039-6.852,1.577-9.06.302-3.293-1.901-5.199-4.406-5.826-7.656-.265-1.368-1.491-2.615-3.057-3.111-1.561-.492-3.033-.094-3.659.992l-6.158,10.665c-1.243,2.153-.741,4.928.993,7.28l-1.312,2.273c-.466.808.03,1.965,1.105,2.586,1.076.621,2.326.472,2.792-.336l.843-1.461h0l3.897,2.25-.843,1.461c-.466.808.03,1.965,1.105,2.586,1.076.621,2.326.472,2.792-.336l.843-1.461,7.794,4.5-.843,1.461c-.466.808.03,1.965,1.105,2.586s2.326.472,2.792-.336l.843-1.461,3.897,2.25-.843,1.461c-.466.808.03,1.965,1.105,2.586s2.326.472,2.792-.336l.843-1.461,3.897,2.25h0l-.843,1.461c-.466.808.03,1.965,1.105,2.586s2.326.472,2.792-.336l1.312-2.273c2.904.325,5.558-.627,6.801-2.78h0ZM45.989,46.967L14.812,28.967c-2.149-1.241-3.141-3.56-2.211-5.171l5.296-9.173c1.236,3.627,3.907,6.696,7.82,8.955,4.988,2.88,11.335.905,13.16.233.302-.11.61-.03.764.026.159.057.458.206.672.515l.458.664c.436.631,1.005,1.459,1.643,2.397l-4.324,1.391c-.991.318-1.281,1.36-.655,2.327.236.364.571.667.947.884.624.36,1.366.491,1.983.292l4.364-1.403c.841,1.298,1.706,2.67,2.535,4.056l-4.464,1.436c-.991.318-1.281,1.36-.655,2.327.236.364.571.667.947.884.624.36,1.366.491,1.983.292l4.217-1.355c1.832,3.459,3.002,6.505,2.279,7.758-.93,1.611-3.434,1.912-5.584.671v-.006Z"/>
</svg>