<?xml version="1.0" encoding="UTF-8"?>
<svg id="_레이어_1" data-name="레이어 1" xmlns="http://www.w3.org/2000/svg" xmlns:xlink="http://www.w3.org/1999/xlink" viewBox="0 0 1000 250">
  <defs>
    <style>
      .cls-1 {
        fill: #fff;
      }

      .cls-2 {
        fill: url(#_무제_그라디언트_2);
      }

      .cls-3 {
        fill: #000060;
      }

      .cls-4 {
        fill: url(#_무제_그라디언트_3);
      }
    </style>
    <radialGradient id="_무제_그라디언트_3" data-name="무제 그라디언트 3" cx="163.036" cy="-301.963" fx="163.036" fy="-301.963" r="124.977" gradientTransform="translate(-490.383 592.477) rotate(-90) scale(1.983 -1.844)" gradientUnits="userSpaceOnUse">
      <stop offset="0" stop-color="#fd5"/>
      <stop offset=".1" stop-color="#fd5"/>
      <stop offset=".5" stop-color="#ff543e"/>
      <stop offset="1" stop-color="#c837ab"/>
    </radialGradient>
    <radialGradient id="_무제_그라디언트_2" data-name="무제 그라디언트 2" cx="-18.01" cy="-243.365" fx="-18.01" fy="-243.365" r="124.977" gradientTransform="translate(832.942 -140.925) rotate(78.681) scale(.886 -3.653) skewX(-.026)" gradientUnits="userSpaceOnUse">
      <stop offset="0" stop-color="#3771c8"/>
      <stop offset=".128" stop-color="#3771c8"/>
      <stop offset="1" stop-color="#60f" stop-opacity="0"/>
    </radialGradient>
  </defs>
  <g>
    <path id="o" class="cls-3" d="M897.185,148.977c0-8.056,1.343-15.216,4.029-21.482,2.684-6.264,6.36-11.605,11.03-16.017,4.666-4.411,10.132-7.768,16.4-10.07,6.264-2.302,12.914-3.452,19.949-3.452,7.159,0,13.839,1.15,20.043,3.452,6.202,2.302,11.636,5.659,16.304,10.07,4.668,4.411,8.345,9.753,11.029,16.017,2.686,6.267,4.029,13.427,4.029,21.482,0,8.056-1.343,15.22-4.029,21.484-2.684,6.267-6.362,11.605-11.03,16.017-4.668,4.411-10.102,7.768-16.304,10.07-6.204,2.301-12.884,3.452-20.043,3.452-7.036,0-13.685-1.151-19.949-3.452-6.268-2.302-11.734-5.659-16.4-10.07-4.67-4.412-8.345-9.75-11.029-16.017-2.686-6.264-4.029-13.427-4.029-21.484ZM923.848,188.874c1.277.642,2.493.959,3.645.959,3.836,0,8.662-2.59,14.482-7.769,5.816-5.179,12.179-13.522,19.086-25.032,8.182-13.811,12.978-24.744,14.386-32.801,1.405-8.056.255-13.17-3.454-15.345-1.279-.638-2.559-.959-3.836-.959-3.836,0-8.664,2.59-14.482,7.769-5.82,5.179-12.179,13.588-19.086,25.223-8.184,13.685-12.947,24.552-14.289,32.609-1.343,8.056-.163,13.172,3.548,15.345h0Z"/>
    <path id="f" class="cls-3" d="M843.622,199.999v-4.028c3.962,0,6.744-.959,8.343-2.877,1.598-1.918,2.398-5.563,2.398-10.933v-77.685s-11.509,0-11.509,0v-3.836s11.509,0,11.509,0c0-7.544.448-13.811,1.343-18.799.893-4.987,2.332-9.237,4.316-12.755,1.982-3.516,4.634-6.681,7.961-9.495,2.939-2.556,6.968-4.795,12.084-6.714,5.114-1.918,10.613-2.877,16.495-2.877,5.114,0,9.525.642,13.236,1.918,3.707,1.28,6.968,3.006,9.782,5.179,1.791,1.408,3.421,3.486,4.893,6.234,1.469,2.752,2.205,5.979,2.205,9.686,0,3.965-1.47,7.547-4.411,10.742-2.943,3.199-6.779,4.795-11.509,4.795-5.245,0-9.432-1.406-12.563-4.22-3.135-2.812-4.7-6.714-4.7-11.701,0-3.708,1.085-7.127,3.262-10.262,2.173-3.132,5.496-5.4,9.975-6.809-.384-.509-.993-.926-1.823-1.247-.834-.317-1.952-.48-3.357-.48-2.177,0-3.965.321-5.371.959-1.408.642-2.622,1.535-3.645,2.686-1.15,1.408-2.048,3.389-2.686,5.945-.641,2.56-.959,6.396-.959,11.509v25.704s20.524,0,20.524,0v3.836s-20.525,0-20.525,0v75.767c0,6.267,1.468,10.454,4.413,12.563,2.939,2.11,6.968,3.165,12.084,3.165v4.028"/>
    <path id="n" class="cls-3" d="M799.519,199.999v-4.028c3.323,0,5.625-.959,6.904-2.877,1.277-1.918,1.918-5.563,1.918-10.933v-62.34c0-2.686-.32-4.922-.959-6.714-.641-1.79-1.629-3.132-2.973-4.028-1.343-.893-3.166-1.343-5.466-1.343s-4.509.576-6.618,1.726c-2.111,1.151-3.836,2.782-5.179,4.892-1.343,2.11-2.013,4.508-2.013,7.193v60.614c0,5.371.67,9.015,2.013,10.933,1.343,1.918,3.611,2.877,6.809,2.877v4.028M739.864,199.999v-4.028c3.963,0,6.744-.959,8.345-2.877,1.598-1.918,2.398-5.563,2.398-10.933v-60.806c0-5.755-.768-10.005-2.302-12.755-1.534-2.749-4.349-4.124-8.441-4.124v-4.028c4.091.383,8.057.575,11.893.575,6.393,0,12.373-.222,17.936-.671,5.561-.446,10.707-1.118,15.441-2.013v13.811c3.068-5.114,7.193-8.791,12.373-11.029,5.177-2.236,11.22-3.357,18.125-3.356,5.882,0,10.518.737,13.906,2.205,3.387,1.471,5.978,3.294,7.77,5.467,1.918,2.301,3.323,5.371,4.218,9.207.893,3.836,1.343,9.015,1.343,15.537v51.982c0,5.371.798,9.015,2.398,10.933,1.598,1.918,4.38,2.877,8.345,2.877v4.028"/>
    <g id="i">
      <path class="cls-3" d="M724.615,96.845c1.833-.683,3.602-1.413,5.227-2.249,2.366-1.214,4.284-2.618,5.755-4.219,1.469-1.598,2.461-3.453,2.973-5.563.509-2.11.384-4.442-.382-7.002-1.026-3.707-2.815-6.297-5.372-7.768-2.559-1.469-5.5-2.205-8.823-2.205-3.128,0-6.503.559-10.121,1.66,6.835,8.125,10.482,17.819,10.744,27.346h0Z"/>
      <path class="cls-3" d="M744.707,196.355h-1.534c-1.793,0-3.166-.48-4.125-1.439s-1.629-2.015-2.013-3.165c-.511-1.277-.834-2.749-.959-4.412v-72.89c0-1.918.223-3.867.673-5.85.446-1.981.796-3.419,1.055-4.316,0-.767-.129-1.343-.384-1.726l-.191-.192c-.129-.384-.577-.576-1.343-.576h-.575c-3.327.768-6.811,1.664-10.454,2.686-.231.065-.454.124-.685.189-.955,6.711-3.327,12.825-6.829,18.039,3.602,3.057,6.728,8.765,6.728,19.365,0,13.99-6.614,30.573-18.684,44.23v2.577c0,1.918-.321,3.39-.959,4.411-.641,1.024-1.343,1.793-2.109,2.302-1.024.513-2.111.832-3.262.959h-1.343c-1.15,0-1.534.45-1.15,1.342l.384.959c.382.767.959,1.151,1.725,1.151h44.693c.639,0,1.152-.317,1.536-.959l.766-1.343c.509-.893.193-1.342-.959-1.342h.002Z"/>
    </g>
  </g>
  <g>
    <g id="c">
      <path class="cls-3" d="M647.211,73.938c5.497-4.401,11.928-7.068,18.544-7.068,8.249,0,11.318,2.878,11.318,7.674,0,4.22-3.262,6.138-7.29,9.015-5.371,3.836-11.701,9.975-11.701,20.91,0,11.509,9.015,23.019,24.17,23.019,18.415,0,28.966-14.387,28.966-29.541,0-17.456-16.113-35.104-45.846-35.105-7.748,0-15.144,1.229-22.087,3.43,1.564,2.325,2.89,4.882,3.927,7.667h0Z"/>
      <path class="cls-3" d="M707.765,132.668c-.959,0-1.918.767-1.918,2.302,0,1.726.959,3.069.959,6.33,0,13.811-11.318,23.978-27.047,23.978-17.938,0-40.94-14.977-47.121-42.846-1.327.909-2.708,1.747-4.153,2.485.599,1.814.92,3.772.92,5.831,0,11.782-10.165,20.333-24.169,20.332-3.879,0-7.734-.582-11.308-1.392-.362,4.664-1.017,9.135-1.891,13.419,7.564,21.128,26.191,36.89,53.192,36.89,39.133,0,65.413-33.761,65.413-57.931,0-3.645-.575-9.4-2.877-9.4h0Z"/>
    </g>
    <g id="f-2">
      <path class="cls-3" d="M558.429,92.959c0-11.126-7.288-17.072-15.921-17.072-2.021,0-3.587.335-4.981.708,3.026,5.911,4.501,12.259,4.501,18.474,0,6.794-1.54,13.082-4.302,18.554,9.681-.545,20.703-6.922,20.703-20.664h0Z"/>
      <path class="cls-3" d="M566.103,78.955c.575,0,1.343.384,2.493,2.11,5.371,7.482,18.991,34.721,41.627,34.721,14.195,0,26.088-10.742,26.088-27.239,0-17.456-13.236-25.705-25.513-25.705-12.66,0-19.757,8.825-23.211,13.236-3.069,3.837-5.371,4.604-7.482,4.604-10.359,0-20.142-17.84-40.475-17.84-3.948,0-7.677.678-11.05,1.934,1.023.963,1.989,1.955,2.892,2.976,2.044-.938,4.764-1.457,7.966-1.457,20.334,0,25.321,21.292,25.321,34.529,0,6.714-1.342,13.428-3.452,19.375-.384,1.343-.768,1.726-1.535,1.726-1.343,0-6.138-1.534-14.003-1.535-2.619,0-5.151.244-7.615.635.247,1.164.443,2.418.578,3.775,2.067-.367,4.4-.574,7.036-.574,3.452,0,7.098.384,10.742.959,1.151.192,1.918.768,1.918,1.535,0,.383-.383.959-.767,1.726-5.06,9.249-12.503,15.78-20.16,16.887-3.056,16.817-10.935,33.035-23.324,45.43,6.086,5.8,14.223,9.234,23.534,9.234,11.893,0,24.745-5.562,32.994-18.223,6.33-9.592,10.167-24.17,10.167-41.818,0-3.645-.191-5.371-.191-6.906,0-.768.191-.959.575-.959,2.877,0,14.195,5.563,23.979,5.563,5.947,0,10.742-2.493,10.742-6.906,0-2.686-1.918-4.604-5.179-4.604-3.644,0-5.371,2.302-14.962,2.302-4.604,0-9.207-.575-13.62-1.343-1.726-.383-2.11-.767-2.302-2.301-1.918-14.579-6.906-28.391-14.195-42.969-.383-.576-.575-1.343-.575-1.727,0-.767.384-1.151.959-1.151h.001Z"/>
    </g>
    <path id="e" class="cls-3" d="M522.654,120.006c-.959,0-1.918.768-1.918,2.302,0,1.726.959,3.069.959,6.33,0,15.154-15.731,27.623-38.558,27.623-16.88,0-25.896-8.249-25.896-16.497,0-5.179,4.219-10.359,13.236-10.359,7.48,0,12.468,2.11,17.264,2.11,3.836,0,5.755-1.918,5.755-4.22,0-2.11-1.726-3.644-5.179-3.644-2.11,0-3.452.575-5.563.575-10.551,0-13.236-11.126-13.236-20.526,0-20.142,10.167-37.214,18.991-37.214,4.412,0,6.138,2.877,6.138,5.755,0,4.412-4.22,6.138-8.441,10.55-3.262,3.452-6.906,8.249-6.906,16.113,0,12.852,9.975,22.252,23.403,22.252,16.497,0,25.897-12.852,25.897-26.088,0-15.73-13.428-32.228-45.463-32.228-15.4,0-29.011,3.512-38.606,9.661,4.199,6.097,6.662,13.371,6.662,21.8,0,9.068-3.127,17.086-8.377,23.076,5.369,3.078,12.576,5.364,21.906,6.656.959.192,1.535.384,1.535,1.151s-1.535,1.343-3.262,1.343c-7.326,0-15.655.993-23.573,3.261,3.042,6.029,4.864,13.064,4.864,21.484,0,15.808-6.673,30.051-17.804,40.909,8.428,4.936,19.129,7.814,30.758,7.814,42.393,0,68.291-34.144,68.291-70.592,0-3.644-.576-9.4-2.877-9.4h-.001Z"/>
    <path id="s" class="cls-3" d="M402.278,123.651c0-4.028-2.685-8.057-7.865-8.057-6.33,0-9.207,6.33-12.469,10.55-4.795,6.33-13.044,13.62-25.705,13.62-16.497,0-28.966-12.085-28.966-29.541,0-29.925,36.064-47.381,64.263-47.381,22.06,0,46.23,10.551,46.229,31.46,0,13.044-9.207,20.716-19.949,20.716-10.934,0-19.759-7.672-19.758-19.183,0-5.755,2.11-12.085,2.11-17.264,0-8.441-5.563-12.277-12.277-12.277-8.823,0-14.578,6.522-14.578,15.538,0,11.701,9.591,20.526,22.443,27.814,18.607,10.551,35.104,19.951,35.104,41.627,0,27.623-26.855,48.724-60.234,48.724-32.227,0-54.863-19.758-54.863-51.218,0-15.346,5.371-27.815,8.441-27.815.575,0,1.15.576,1.15,1.535,0,2.11-2.301,4.028-2.301,9.592,0,12.66,12.468,19.949,30.884,19.949,28.391,0,48.341-17.456,48.341-28.39h0Z"/>
  </g>
  <g>
    <path class="cls-4" d="M125.041,0C72.854,0,57.592.054,54.625.3c-10.71.89-17.374,2.577-24.634,6.193-5.595,2.779-10.008,6.001-14.363,10.516C7.697,25.244,2.891,35.376,1.151,47.419.305,53.266.059,54.458.009,84.323-.011,94.277.009,107.378.009,124.951.009,177.109.066,192.361.316,195.322c.865,10.424,2.5,16.982,5.96,24.156,6.614,13.732,19.246,24.04,34.128,27.887,5.153,1.327,10.844,2.058,18.15,2.404,3.096.135,34.647.231,66.218.231s63.142-.038,66.161-.192c8.46-.398,13.372-1.058,18.804-2.462,14.978-3.866,27.379-14.02,34.128-27.945,3.394-7.001,5.114-13.809,5.893-23.689.169-2.154.24-36.497.24-70.794s-.077-68.583-.246-70.737c-.788-10.039-2.509-16.79-6.012-23.925-2.874-5.841-6.066-10.203-10.7-14.663-8.27-7.901-18.383-12.709-30.435-14.447-5.839-.844-7.003-1.094-36.882-1.146h-40.685Z"/>
    <path class="cls-2" d="M125.041,0C72.854,0,57.592.054,54.625.3c-10.71.89-17.374,2.577-24.634,6.193-5.595,2.779-10.008,6.001-14.363,10.516C7.697,25.244,2.891,35.376,1.151,47.419.305,53.266.059,54.458.009,84.323-.011,94.277.009,107.378.009,124.951.009,177.109.066,192.361.316,195.322c.865,10.424,2.5,16.982,5.96,24.156,6.614,13.732,19.246,24.04,34.128,27.887,5.153,1.327,10.844,2.058,18.15,2.404,3.096.135,34.647.231,66.218.231s63.142-.038,66.161-.192c8.46-.398,13.372-1.058,18.804-2.462,14.978-3.866,27.379-14.02,34.128-27.945,3.394-7.001,5.114-13.809,5.893-23.689.169-2.154.24-36.497.24-70.794s-.077-68.583-.246-70.737c-.788-10.039-2.509-16.79-6.012-23.925-2.874-5.841-6.066-10.203-10.7-14.663-8.27-7.901-18.383-12.709-30.435-14.447-5.839-.844-7.003-1.094-36.882-1.146h-40.685Z"/>
    <path class="cls-1" d="M124.983,32.695c-25.065,0-28.21.11-38.054.558-9.825.45-16.532,2.006-22.4,4.289-6.07,2.358-11.219,5.512-16.349,10.645-5.134,5.131-8.287,10.282-10.652,16.351-2.288,5.872-3.845,12.582-4.288,22.406-.44,9.847-.556,12.995-.556,38.067s.112,28.208.558,38.055c.452,9.828,2.007,16.536,4.288,22.406,2.359,6.072,5.512,11.222,10.644,16.353,5.128,5.135,10.277,8.297,16.343,10.655,5.872,2.283,12.58,3.839,22.403,4.289,9.844.448,12.988.558,38.051.558s28.202-.11,38.047-.558c9.825-.45,16.539-2.006,22.411-4.289,6.068-2.358,11.209-5.52,16.337-10.655,5.134-5.131,8.287-10.282,10.652-16.351,2.269-5.872,3.826-12.582,4.288-22.406.442-9.847.558-12.986.558-38.057s-.115-28.218-.558-38.065c-.461-9.828-2.019-16.536-4.288-22.406-2.365-6.072-5.518-11.222-10.652-16.353-5.134-5.135-10.267-8.289-16.343-10.645-5.884-2.283-12.594-3.839-22.419-4.289-9.844-.448-12.978-.558-38.051-.558h.029ZM116.704,49.331c2.457-.004,5.199,0,8.279,0,24.642,0,27.562.088,37.293.531,8.998.412,13.882,1.916,17.135,3.179,4.307,1.673,7.377,3.673,10.606,6.904,3.23,3.231,5.23,6.308,6.906,10.616,1.263,3.25,2.769,8.135,3.178,17.136.442,9.732.538,12.655.538,37.292s-.096,27.56-.538,37.292c-.411,9.001-1.915,13.886-3.178,17.136-1.673,4.308-3.676,7.376-6.906,10.605-3.23,3.231-6.297,5.231-10.606,6.904-3.249,1.269-8.137,2.769-17.135,3.181-9.729.442-12.651.539-37.293.539s-27.564-.096-37.293-.539c-8.998-.415-13.882-1.919-17.137-3.183-4.307-1.673-7.383-3.673-10.613-6.904-3.23-3.231-5.23-6.301-6.906-10.611-1.263-3.25-2.769-8.135-3.178-17.136-.442-9.732-.531-12.655-.531-37.307s.088-27.56.531-37.292c.411-9.001,1.915-13.886,3.178-17.14,1.673-4.308,3.676-7.385,6.906-10.616,3.23-3.231,6.307-5.231,10.613-6.908,3.253-1.269,8.139-2.769,17.137-3.183,8.514-.385,11.813-.5,29.014-.519v.023ZM174.247,64.659c-6.114,0-11.075,4.956-11.075,11.074s4.961,11.078,11.075,11.078,11.075-4.962,11.075-11.078-4.961-11.078-11.075-11.078v.004ZM124.983,77.603c-26.174,0-47.395,21.227-47.395,47.408s21.221,47.398,47.395,47.398c26.174,0,47.387-21.217,47.387-47.398s-21.215-47.408-47.389-47.408h.002ZM124.983,94.239c16.989,0,30.763,13.776,30.763,30.772s-13.774,30.772-30.763,30.772-30.763-13.778-30.763-30.772,13.772-30.772,30.763-30.772Z"/>
  </g>
</svg>