<?xml version="1.0" encoding="UTF-8"?>
<svg id="Layer_1" xmlns="http://www.w3.org/2000/svg" version="1.1" viewBox="0 0 512 512">
  <!-- Generator: Adobe Illustrator 29.5.1, SVG Export Plug-In . SVG Version: 2.1.0 Build 141)  -->
  <defs>
    <style>
      .st0 {
        fill: #fafafa;
        stroke: #000;
        stroke-miterlimit: 10;
      }
    </style>
  </defs>
  <path class="st0" d="M263.5,29h0c123.99,0,224.5,100.51,224.5,224.5h0c0,123.99-100.51,224.5-224.5,224.5h0c-123.99,0-224.5-100.51-224.5-224.5h0c0-123.99,100.51-224.5,224.5-224.5Z"/>
  <path d="M281.28,341.33h-50.56c-23.11.04-43.6-14.85-50.71-36.84l-15.62-48.06c-7.24-22,.59-46.17,19.37-59.73l40.87-29.61c18.67-13.63,44.01-13.63,62.68,0l40.9,29.7c18.78,13.56,26.62,37.73,19.37,59.73l-15.59,48.06c-7.17,21.93-27.63,36.76-50.71,36.76h0ZM512,256c0,141.38-114.62,256-256,256S0,397.38,0,256,114.62,0,256,0c141.32.15,255.85,114.68,256,256ZM256,448c11.05-.06,22.07-1.08,32.94-3.03l18.09-59.33c8.42-26.45,32.98-44.42,60.74-44.46l60.1-.11c9.67-19.41,15.96-40.34,18.58-61.87l-47.96-32c-22.71-15.94-32.52-44.72-24.28-71.21l18.2-54.89c-15.26-15.34-32.98-28-52.44-37.46l-46.34,32.13c-22.42,16.36-52.84,16.36-75.26,0l-45.1-32.77c-19.16,9.15-36.67,21.41-51.84,36.27l16.36,56.68c8.24,26.49-1.57,55.27-24.28,71.21l-47.66,34.03c2.74,20.83,8.92,41.07,18.28,59.88l60.07.11c27.76.02,52.32,17.99,60.76,44.44l18.45,59.39c10.75,1.93,21.65,2.93,32.58,2.99h.01Z"/>
</svg>