<?xml version="1.0" encoding="UTF-8"?>
<svg id="_레이어_2" data-name="레이어 2" xmlns="http://www.w3.org/2000/svg" viewBox="0 0 514.499 110">
  <defs>
    <style>
      .cls-1 {
        fill: #000060;
      }
    </style>
  </defs>
  <g id="_레이어_2-2" data-name="레이어 2">
    <g id="img">
      <path class="cls-1" d="M46.939,1.645c.133.125,1.01,1.566.939,1.627l-1.551-.585-2.722.299,5.127,1.431-.854-.571c-.01-.694.773-.995.588-1.807-.04-.174-1.197-.713-1.157-1.333,1.237.553,1.333.352,2.565,0l-1.14,1.138c.737.105,1.128-.553,1.849-.596.843-.05,4.914.38,5.633.669.507.204,1.75,1.144,1.631,1.77-.164.862-2.077.048-2.272.729,1.398.486,2.837-.906,3.719.704.444.81.116,1.344.314,1.97.152.481,2.192,1.533,2.26,3.486.033.952-.595,1.252-.605,1.703-.003.112,1.16.346.292,1.862l-1.135-.287c.597,1.92.851,3.95.567,6.003-.681.154-.461-.118-.635-.373-.707-1.035-1.428-2.045-2.119-3.081-1.095-.268-2.043-1.025-3.229-.831l1.707,1.285c.044.215-.277.184-.421.138-1.606-.522-3.519-2.67-5.219-3.217-.108-1.444-1.511-1.087-.344.359-1.062-.389-1.783-.215-2.848.001-.221-.75.369-.454.55-.787.911-1.676-.009-.863-1.119-1.217l.852-.424c-.778-.726-1.827-1.111-2.847-.717.029-.504.005-.989-.085-1.488-.065-.356-.063-1.379-.484-1.368-.384,1.323.332,2.532-.002,3.713.303.25,1.169-.829,1.141.142-.008.274-.506.019-.579.328-.099.419.16,1.283-.032,1.497-.101.113-.745.025-.984.305-.179.21.325,1.005.168,1.159-.041.04-.51-.087-.763.073-.306.193-.505,1.109-1.316,1.437-.958.388-2.176.052-3.526,1.158-.397.325-.955,1.542-1.528,1.775-.849.346-1.468-1.116-.844,1.274l1.14-.711-1.428,2.138c.144.127,1.312-.539,1.371-.621.052-.072-.228-.39-.176-.466.097-.142,1.433-.978,1.794-.915.932.061.141.277-.048.488-.263.293-1.795,1.799-1.514,2.089,1.246-.144,1.213-2.088,1.988-1.576-.791.821.349.689.288.86-1.161.77-1.166,2.404-2.539,2.851-.237.077-.6-.193-.809-.076-.22.124-2.833,3.854-2.918,4.092-.282.789,1.219.013.85.995-.592-.506-1.624.426-1.965,1.028-.279.492-.214,1.181-.467,1.547-.188.272-1.135.275-.675.839.078.096.482-.124.548.162.169.741-.72.103-.578.855.048.256.446.022.564.348.891,2.472-.239,3.153-2.554,3.515.437-1.123-.898-1.389-1.137-2.151-.197-.628.324-.367.642-.42,1.048-.177-.32-.644-.322-.701-.01-.384.546-1.231-.47-1.586-.719-.251-.304.74-.424.855-.303.29-1.367-.932-2.059.364-.851,1.594-.357,2.736.349,4.207-1.471.289-1.606-1.903-1.711-2.001-.131-.122-.934.353-1.24.313-.242-.032-.75-1.98-2.175-.884-.409-.524.863-2.459,1.301-2.838.363-.314,3.025-1.911,3.256-1.733l-.282,1.141.708-.856c1.396,1.995,1.768,1.413,1.567-.857l-1.708.568c-.017-.429.715-.467.803-.61.301-.49-1.065-2.452-2.08-2.247-1.182.239,1.071,1.502.705,1.996-1.653,1.087-1.354.036-1.604-.011-.107-.02-2.078.037-2.184.066-1.163.314-2.101,4.465-1.911,5.513l1.994,2.441c-3.332.251-1.976-2.901-2.032-4.729-.039-1.251-1.817-2.352.116-3.625l4.474-1.784c-.144-1.137-2.833-.855-3.684-.567-.375.127-1.342.927-1.56,1.294-.593,1-.105,2.268-1.015,2.837l-2.505-6.781c-.235-1.146-.083-5.273.241-6.475.238-.882.78-1.261.983-1.89.498-1.543.491-3.601,1.847-4.723.099-.244-.58-.057-.587-.29-.045-1.46,1.707-1.865,2.555-2.596,1.168-1.006,1.481-2.616,3.732-2.114.095.088-.768,3.302.282,2.284.506-.49.337-2.199.406-2.295.33-.462,1.56-.057,1.875-.709.373-.772-1.318.158-.8-1.373.375-1.108,2.478-1.37,3.448-1.043.364.123.311,1.545,1.345-.579l-1.707.283c.238-1.684,2.819-.355,3.956-1.114l.598.828.849-2.153.011,1.009c1.518-.004.78-1.351.85-1.424.241-.247,1.806-.093,2.225-.204.712-.187,1.299-.657,1.989-.865,1.909-.574,6.224.072,7.675,1.436ZM41.891,3.848c-.311.322-1.369.236-1.405.298-.352.608.059,1.844-1.441,2.421.218,1.298.738-.417,1.135-.432.112,2.627-3.062,1.334-3.129,3.43.861-.539.456.18.57.279.611.533.503-.513.671-.739.615-.824,1.425-.603,1.749-.966.441-.493.502-1.819.645-2.477l1.205-1.815ZM35.906,4.42c-.526-.64-1.249,1.934-1.403,2.106-.245.274-.686.103-.818.238-.275.281.379,1.075-.915.797l-.278-.568c-.197.607-.615,1.879-1.006,2.305-.331.361-1.495-.574-1.277,1.695.646.735,2.239-2.769,2.393-2.886.637-.486,1.622.017,2.189-.663.003-.551,1.217-2.899,1.115-3.024ZM35.909,8.991l1.067-.499c.096-1.478,1.879-2.339,1.208-3.787l-2.275,4.286ZM57.973,5.966c.259-.228,1.086-.535.594-.974l-2.993,1.71c1.149.404,1.657-.083,2.399-.736ZM54.431,7.28c-2.257.567-3.33-1.66-5.412-1.431-.623.517,2.214,1.579,2.566,1.431l-.289.566,1.18.134,1.954-.7ZM27.68,7.594c.083-.153,1.051-.153.815-.889-.995.467-1.652,1.273-2.276,2.145.126.402.755-.26.851-.144.145.175-.315.842-.282,1.141.562.235,1.002-1.089,1.077-1.365.096-.352-.237-.793-.186-.888ZM56.712,7.28c-2.182-.176-1.935.128-1.707,1.998l1.707-1.998ZM60.38,10.386c.074-.115.157-.796-.104-.82-.744.365-1.236,1.085-1.936,1.489-.789.455-2.189.342-2.196,1.368,1.581-.309,2.147-.736,3.319-1.681.238-.191.856-.264.916-.356ZM33.717,10.625c-.168-.289.049-.714-.23-.774-.194.726-1.465,1.921-.567,2.283.516.208.767-1.136,1.277-1.285.103-.237-.378-.049-.48-.224ZM40.181,9.851c-.784-.197-.522.495-1.015.826-.641.431-1.796.263-1.839,1.459-.672-.99-1.305.087-1.417,0-.095-.074.217-.696-.284-.57-1.367,3.322.492,2.176,2.345.858.266-.189.388-.57.678-.815.628-.533,1.619-.595,1.532-1.758ZM25.932,10.423c-.741-.119-.59.132-.582.721.029,2.01,1.149,2.239,1.15.135l-.851.284.283-1.14ZM43.86,12.384l-.398-.817c-.696.513-.975,1.901-1.995,1.728-.135-.023-.153-.595-.281-.588-.63.035-1.143,1.095-1.002,1.716,1.752.162,2.293-1.462,3.675-2.039ZM34.197,12.994c-1.251-.311-.148,2.287.144,2.281l.713-1.423c-.814.125-.988-.032-.857-.859ZM29.923,15.853c-.149-1.12.516-1.827-.993-1.138l-.288-.861c-.776.631-.345,1.507-.127,2.276.392-.091,1.033-.269,1.408-.276.046.345.335,1.336.283,1.43-.025.044-.675-.377-.852.147l.287,1.854c.271-.252,1.092-.254,1.136-.298.112-.11-.239-2.74-.299-3.122-.183-.042-.369-.014-.555-.01ZM32.206,16.423l-.57-1.998c-.051.521.261,3.136.71,3.137l.996-2.566c-1.063-.285-.436,1.314-1.135,1.426ZM27.643,16.713c-.813-.15-.467.199-.641.627-.128.314-.651,1.762-.496,1.943.379-.572,1.102-.232,1.135-.286.219-.368-.553-1.654.002-2.284ZM29.623,21.267c.273-.374-.883-1.826-.273-2.555-.997.205-.475,1.941-.572,1.989-.172.086-.71-.085-.823.028-.307.309.177,3.559.26,4.27.487.073.306-.681.281-.994-.052-.626-.448-1.345-.25-1.955.214-.659,1.286-.659,1.377-.784Z"/>
      <path class="cls-1" d="M26.217,42.44c.212.368.006,1.875.061,1.956.097.143.785.252.791.472.003.105-1.382.619-.848,1.285.52.65.496-.739.85-.569.195,1.693.1,2.259,1.998,2.288-1.387,1.26,1.195,1.347,2.058,1.737.334.151.094.759.788.547.011-1.304,1.23-1.492.86-2.86l1.139.005-.572,1.139.856.004c.132.559-.629-.013-.567.566,1.558-.265.919.353,1.215.762.363.5,1.002.351,1.288.495.051.025-.011.792.616.441.045-.025.233-1.131.867-.55.48.44-.904.895-.853.998.41.812,2.018.883,2.231,1.066.118.101-.049.563.229.808,1.188,1.049.773-.288.919-.454.066-.076,1.682-1.065,1.748-.989.069.079.161,1.304,1.141,1.574l-1.138-.142c1.109,1.166.34,1.527.106,2.485-.119.485.405,1.174-.673,1.514l.281-1.141h-1.138s.284.853.284.853c-1.065-.179-1.336.089-1.426,1.141,1.75.692.849-.09.998-.287.388-.513,1.506-.221,2.137-.278l-1.137.566c.409.095,1.486-.128,1.709.005.025.015-.221.353-.109.57.099.193.935,1.603.999,1.681.036.044.518-.175.745-.056.361.189.243.506.774.683,1.068.357,5.883.386,6.138.98-3.006,1.625-6.21,2.97-9.657,3.032-.452,1.165-.204,2.367-.329,3.526-.107.989-.874,1.332-.259,2.808.152.363.663.035.555.492l-.567.144,1.136,1.288-.848-3.578c.537-.616.527.202.665.321,1.585,1.372.883,1.799,1.676,3.334.272.526.786.79,1.034,1.25.772,1.432,1.973,3.396.328,4.676-.071-1.35-.771-2.748-1.355-3.945-.188-.384.185-.79-.642-.627.374,2.67,2.654,4.262,1.863,7.156-.619,2.266-3.453,1.904-5.171,1.184-.73-.306-.719-1.354-1.695-1.487-.77-.105-2.124.508-3.109.587-1.389.111-2.823-.004-4.146-.436-.61-.686-.133-.372.318-.32,2.336.27,3.833.595,6.239-.115.089-.523-.51-.154-.787-.338-.236-.156-.278-1.129-.78-1.374-1.494,1.097.398.723-.279,1.433-.467.49-3.277.195-3.926-.007-.282-.088-.305-.63-.885-.887-.944-.418-3.069-.549-4.171-.828-.099-.071.416-.72.288-.853-.391-.404-3.099-.648-3.917-1.064-.321-.163-1.707-1.126-2.062-1.387-.749-.549-1.067-1.854-2.572-1.557l.566-.565c-.638-.064-.979-.6-1.431-.958-.104-.082-.416.071-.5.007-.255-.198-.397-.965-.929-1.208-.352-.16-.793.168-.828.145-.13-.087-.737-2.633.124-2.275.954.941,2.023,1.843,3.071,2.655,2.841,2.201,7.42,4.766,11.25,5.564,1.975.411,4.406-.063,6.057.926l.004-1.142c-1.741.65-1.812-.934-2.481-1.112-.617-.165-1.574.479-2.365-.036.934-.794-.288-1.673,1.138-1.429l-.571-.426.576-.286-.856-.284,1.711-.433c-.314-2.058-1.561-3.797-2.532-5.608-.28-.522-.298-1.15-.59-1.695-.677-1.263-2.45-2.21-2.155-3.557.595.646,1.044,1.544,1.996,1.719.531.097.606-.374.427-.573-.055-.061-.672-.071-.934-.286-1.009-.83-1.816-.975-2.364-1.412-.1-.079-1.311-1.969-1.357-2.088-.354-.919-.297-2.806-.467-3.747-.04-.223-.558-.164-.589-.375-.058-.394.415-1.105.007-1.669.152-.391.543.348.72.422.493.206.565-.425.423-.565-.14-.138-1.364-.239-1.415-.301-.167-.2.196-.947.138-1.276-.046-.262-.34-.516-.412-.865-.206-1.005.499-1.817-.874-1.566-.019.577.074,1.667-.258,2.122-.232.318-.819.108-.884.168-.067.061.202.651.181.946-.07.994.154,1.854.122,2.326-.014.2-.634.114-.589.295.082.325.748.739.569,1.292-.637-.104-.619-.969-.834-1.254-.642-.854-1.254,1.33-1.442,1.63-.111.177-.444.175-.497.257-.055.085.204.388.151.455-.086.11-1.228.752-1.364.625l1.206-2.373c1.331-.68.518-2.767.926-3.917.332-.935,2.35-2.117,1.004-3.141l-.006,1.428c-.807-.211-.266-.757-.282-1.286-.051-1.68.254-.82.306-1.171.065-.436-.429-1.112-.327-1.654.061-.325.718.014.59-.459-1.068.21-.113-.709-.281-.859-.082-.074-.66.187-.87-.184-.373-.657-.237-2.185-.274-2.963l-.561.288-.576-1.713c1.735.428,2.843,2.352,4.77,2.51,1.048.086,1.462-.649,2.353-.796ZM23.937,46.44c-.885-.318-.397.661-.587.83-.18.161-1.553-.344-1.328.975.326,1.907,1.196.668,1.883.225.164-.106.554.019.603-.029.198-.194-.894-1.435-.572-2.001Z"/>
      <path class="cls-1" d="M56.141,25.86c-.805,2.188.876.568,1.139.855.059.064.342,1.65.285,1.716-.085.099-.873-.486-1.135.148-.172.813.548.103.565.136.36.705-.431.891-.459.953-.343.763-.514,1.768-1.117,2.468-.112.13-2.068,1.749-2.198,1.812-1.451.704-1.624-.383-2.127-.667-2.6-1.466-4.604.53-7.204.008l3.356-.774c1.511-.927,3.77-.74,4.907-2.078l-.852-.285c.977-.932,1.701-.601,2.643-.858.415-.113.22-1.172,1.341-.574-.114-.829.013-.98.859-.861-.056-.369-.238-.437-.584-.442-1.666-.023-3.444.125-5.116.157l.567-.712c-.748-.963-1.535-.013-2.276.427.608-3.129,5.13-.81,7.406-1.428Z"/>
      <path class="cls-1" d="M51.296,41.011c-.78,1.288.462,2.143,1.689,2.45,1.875.47,4.512.652,6.291-.164.068.564-.44.735-.562,1.292-.186.851.481,2.028-.953,1.571-.388-.124-.311-1.077-1.047-.862-.5,2.947-.435,1.393-1.793.793-1.991-.88-3.483-.684-4.336-3.366l-3.912,3.932c-.436.248-1.377-.058-2.019.125-.518.148-.676.929-1.334.802-1.512-3.397,2.881-2.856,4.906-4.081l3.07-2.492Z"/>
      <path class="cls-1" d="M57.855,98.756l.57-1.714c.477-.08.195.417.382.764.064.119.482.113.485.25.011.413-.524.83-.55,1.398-.03.655.532,1.588.441,2.254-.089.654-2.19,4.194-2.614,4.19l-2.421-1.855,1.421.43c.282-1.247-.564-1.234-1.137-1.998.658-.177,1.194.751,1.621.816.631.096,3.168-3.233,2.367-4.251-.711-.904-.811,2.747-1.421,2.573.456-2.47,1.525-4.906-1-6.568-.263.226-.478.504-.584.838-.154.483.084,1.417-.41,1.441-.378-.83-1.203-6.326-1.457-6.544-.293-.252-1.617.345-1.68-.311,1.232-.652,4.415.209,5.098,1.313.722,1.168,1.025,5.471.888,6.974Z"/>
      <path class="cls-1" d="M47.873,47.585c.128.123.06,1.05.479,1.154,1.174.293,4.352-.663,5.939-.707.714-.02,1.81.072,2.57.123.379.026.871-.198.702.424-.235.867-1.359,1.136-1.568,1.573-.26.543-.001,1.262-.269,1.748-.256.466-3.581.409-4.227.249-.103-.025-1.422-1.132-1.525-1.145-.363-.044-.821.301-1.314.233-.889-.122-1.787-.682-2.777-.511.563-.718.935-2.354,1.405-2.965.186-.242.483-.275.586-.176ZM52.945,49.678c-1.039-.567-1.894,1.443-.087,1.644,1.472.163,1.726-.311,1.571-1.736-.06-.081-1.121.555-1.293.57-.114.01-.132-.445-.192-.478Z"/>
      <path class="cls-1" d="M60.215,29.37c-.152.131-.672,1.289-.668,1.483.002.114.943.078.556,1.12-.221.595-1.245.345-1.395,1.029,2.055-.757,2.783,1.85,1.132,1.609-1.376-.201-1.671-1.342-3.124.109,0-1.325.328-2.837,1.063-3.942.27-.405.721-.563.925-.859.275-.4,1.695-2.862,1.858-2.916,1.043-.344,1.411,1.326.579,2.022-.245.206-.728.174-.926.344Z"/>
      <path class="cls-1" d="M8.484,79.095c.199.358-.065,1.026.189,1.387.218.31.944.119,1.037.435.56,1.922-1.586,3.111-3.156,3.257l1.14-1.138c-.003-.057-2.946,1.095-1.993.003.164-.188,1.947-.427,1.276-1.154l-3.273,1.431c.328-.825,2.831-1.688,3.134-2.003.853-.885-1.168-.044-1.423-.712-.05-.13,1.158-.487,1.139-.996l-1.422.569c-.456-.569,2.604-2.425,3.353-1.079Z"/>
      <path class="cls-1" d="M21.655,59.019c.076.082.518,1.913.548,2.167.161,1.324.003,2.679-.687,3.836-.111-.89-1.508-1.065-1.571-1.146-.039-.05.404-.791.311-1.236-.076-.365-1.444-.2-.588-1.706.096-.169.465-.189.498-.254.037-.073-.512-.878.502-.693.345.063.496.635.99.46-.435-.01-.782-2.276-.003-1.427Z"/>
      <path class="cls-1" d="M54.717,54.163c-.633.537-.622,2.624-1.514,2.532-.122-.013-2.084-.74-2.298-.855-.247-.133-2.442-2.044-2.174-2.249,2.002.262,3.938.787,5.985.572Z"/>
      <path class="cls-1" d="M8.238,67.619c.112.116-.048,1.303.31,1.689-.914.295-.791-.437-1.052-.566-2.507-1.247-4.709-1.522-7.497-1.288.829-.605,2.275-.745,3.281-.739.676.004,4.703.638,4.958.904Z"/>
      <path class="cls-1" d="M52.153,34.724c.733.773-2.329,1.398-2.889,1.277-.91-.197-1.38-1.753-2.521-1.994.456-.709,1.152.035,1.87.12s3.043.074,3.539.598Z"/>
      <path class="cls-1" d="M46.739,76.171c.228-.459-.331-1.893-.65-2.191-.275-.256-1.103-.215-1.344-.814-.401-.995,1.422.713,1.991-.569-.507.061-1.921-2.007-.992-2.141.847-.123,3.107,5.62.995,5.715Z"/>
      <path class="cls-1" d="M53.577,87.032c-1.059-.236-1.813-.652-2.563.433.404.341,1.004-.139,1.543-.126,1.509.036.986,1.138.593,1.12-.32-.015-.283-1.221-.997-.849l.284.853-1.136-.57c-.112,1.324.456,1.059,1.422.86-1.025,1.274-1.254.846-1.822-.166-.068-.121-.423-.144-.46-.323-.358-1.71,1.807-1.599,1.145-2.943l1.993,1.712Z"/>
      <path class="cls-1" d="M34.766,36.153l-1.139.852,1.139.286-1.136.284c.77-.104.496.798.995,1.142l.429-1.424c2.063.689-.405,2.248-1.701,2-.546-1.812-1.276-3.33,1.413-3.14Z"/>
      <path class="cls-1" d="M25.074,70.745c.031.027-.101.497.189.571.469.119,1.327-.224,1.686.274-.525,2.007.905.38.693,2.007-.183.195-2.132-.595-2.412-.865-.619-.597-1.039-2.769-.155-1.987Z"/>
      <path class="cls-1" d="M59.491,36.939c-1.068.994-2.51-.331-2.486-1.219.019-.72,2.802.22,2.836.572.004.037-.304.605-.35.648Z"/>
      <path class="cls-1" d="M53.29,101.332c-.304.498-.906.299-.54,1.255.265.693,1.483.034,1.11,1.314-1.376-.619-2.309-1.513-1.991-3.143l1.421.574Z"/>
      <path class="cls-1" d="M57.852,23.855c-1-.187-2.062-.262-3.046-.529-.49-.133-.792.202-.657-.61,1.178.242,3.024-.002,3.703,1.139Z"/>
      <path class="cls-1" d="M13.391,67.309c-1.997.11-.732-.765-1.163-1.404-.321-.476-1.686.467-1.401-.594,1.385-.614,2.067.841,2.564,1.998Z"/>
      <path class="cls-1" d="M54.715,89.608l-1.706-.716,1.138-.144-.283-1.139c1.145-.033.847,1.245.851,2Z"/>
      <path class="cls-1" d="M51.577,97.614c.075.059.592,1.444.86,1.71-.621.291-2.124-.106-1.51-.85.117-.141.674.171.085-.86.175.016.504-.047.564,0Z"/>
      <path class="cls-1" d="M62.681,101.082c-1.93,15.197.711-10.276-.944,8.918h1.892c.007-1.588.154-3.277.067-4.78-1.155-.539-.214-.187.063-.866.207-.506.708-3.936.763-4.635.303-3.881-.32-7.684-.536-11.539l-.849,3.999c-.173-1.568.217-3.512.021-5.021-.069-.532-.477-.387-.523-.476-.097-.185-.289-3.046-.498-4.078-.089-.436.538-1.905-.612-2.087-.114-.018-.924.193-.954.232-.1.127.385.539.423.814.906,6.493,2.523,12.948,1.688,19.519Z"/>
    </g>
    <g id="text">
      <path class="cls-1" d="M126.059,46.585v-21.337h5.818v-7.918h-7.235v-4.717h7.235v-6.031h5.138v6.031h7.185v4.717h-7.185v7.918h6.029v18.768h-12.004v-4.56h7.288v-9.542h-7.288v16.671h-4.98ZM140.474,25.929c1.54-2.377,2.945-5.217,4.22-8.521,1.279-3.302,2.388-7.033,3.329-11.194l4.877.63c-.488,2.586-1.144,5.209-1.966,7.864-.822,2.657-1.789,5.226-2.911,7.707-1.117,2.483-2.323,4.771-3.617,6.868l-3.932-3.354ZM140.632,42.495c2.938-1.223,5.411-2.569,7.419-4.036,2.012-1.469,3.644-3.18,4.904-5.138s2.2-4.299,2.83-7.025,1.029-6.012,1.206-9.857l4.98.209c-.207,4.335-.699,8.083-1.467,11.247-.768,3.162-1.897,5.898-3.383,8.204-1.486,2.308-3.356,4.308-5.61,6.004s-4.988,3.276-8.202,4.744l-2.676-4.353ZM161.921,46.848c-2.381-1.363-4.451-2.832-6.213-4.404-1.766-1.572-3.279-3.364-4.535-5.374-1.26-2.008-2.292-4.316-3.095-6.92s-1.467-5.601-1.993-8.991l4.823-.839c.384,2.936.91,5.522,1.574,7.759s1.513,4.22,2.542,5.95c1.033,1.732,2.316,3.27,3.855,4.614,1.536,1.346,3.372,2.63,5.503,3.853l-2.461,4.353ZM147.555,17.435v-4.666h16.777v4.666h-16.777Z"/>
      <path class="cls-1" d="M194.814,24.251c-4.07,2.552-9.619,3.827-16.646,3.827v-5.138c5.207-.035,9.343-.856,12.399-2.463,3.06-1.607,4.589-3.898,4.589-6.87v-.943h-16.988v-5.032h22.756v4.823c0,5.313-2.039,9.245-6.109,11.797ZM179.949,46.796v-16.201h33.189v16.201h-33.189ZM207.475,35.575h-21.861v6.238h21.861v-6.238ZM207.475,28.707V6.844h5.664v21.863h-5.664Z"/>
      <path class="cls-1" d="M246.278,37.935v5.347c-1.19.524-2.788.927-4.8,1.206-2.008.28-4.255.42-6.735.42h-16.358v-5.295h16.408c5.211,0,9.036-.559,11.485-1.678ZM218.595,16.176v-5.138h10.168v-4.56h5.821v4.56h10.276v5.138h-26.266ZM223.495,20.58c2.081-1.572,4.831-2.36,8.26-2.36s6.175.787,8.256,2.36c2.077,1.572,3.118,3.671,3.118,6.292s-1.041,4.71-3.118,6.265c-2.081,1.555-4.835,2.333-8.256,2.333s-6.179-.778-8.26-2.333-3.118-3.644-3.118-6.265,1.037-4.719,3.118-6.292ZM236.156,24.094c-1.083-.733-2.55-1.102-4.401-1.102s-3.322.369-4.404,1.102c-1.087.733-1.628,1.661-1.628,2.778s.541,2.045,1.628,2.778c1.083.735,2.55,1.102,4.404,1.102s3.318-.367,4.401-1.102c1.083-.733,1.628-1.659,1.628-2.778s-.545-2.045-1.628-2.778ZM254.718,47.109h-5.61V6.844h5.61v40.264Z"/>
      <path class="cls-1" d="M298.337,45.379h-38.431v-5.347h16.358v-5.086c-4.163-.244-7.446-1.029-9.857-2.36-2.412-1.327-3.617-3.231-3.617-5.714,0-2.761,1.494-4.806,4.481-6.134,2.988-1.327,6.947-1.991,11.877-1.991s8.878.664,11.846,1.991c2.972,1.329,4.458,3.373,4.458,6.134,0,2.483-1.206,4.387-3.617,5.714-2.412,1.331-5.679,2.116-9.804,2.36v5.086h16.305v5.347ZM261.216,16.544v-5.244h14.995v-4.98h5.821v4.98h15.045v5.244h-35.862ZM271.468,29.335c1.905.526,4.462.787,7.68.787s5.775-.261,7.68-.787c1.905-.524,2.857-1.344,2.857-2.463,0-1.083-.96-1.895-2.884-2.438-1.924-.541-4.474-.812-7.653-.812s-5.733.271-7.657.812c-1.92.543-2.884,1.356-2.884,2.438,0,1.119.952,1.939,2.861,2.463Z"/>
      <path class="cls-1" d="M350.242,45.379h-38.431v-5.556h13.893v-8.179h5.714v8.179h18.824v5.556ZM314.169,26.978v-5.558h27.79v-7.916h-27.79v-5.558h33.554v27.84h-5.764v-8.807h-27.79Z"/>
      <path class="cls-1" d="M369.431,26.453l11.743,14.523-4.143,3.932-9.542-12.06c-1.432,3.636-3.302,6.493-5.61,8.573-2.304,2.079-4.892,3.241-7.757,3.487v-5.82c1.993-.315,3.748-1.407,5.268-3.277s2.734-4.343,3.644-7.419c.906-3.076,1.467-6.536,1.678-10.381h-9.857v-5.505h9.804v-5.768h5.821v5.768h9.277v5.505h-9.385c-.173,3.427-.488,6.24-.941,8.442ZM389.614,47.109h-5.664V6.844h5.664v40.264Z"/>
      <path class="cls-1" d="M429.93,36.675v8.652h-6.136v-8.652h-20.183v-4.299l18.298-23.75h6.708l-17.407,22.86h12.795v-7.707h5.925v7.707h6.659v5.19h-6.659Z"/>
      <path class="cls-1" d="M458.765,37.672v10.381h-5.714v-10.381h-16.358v-5.556h38.431v5.556h-16.358ZM447.755,26.112c-3.007,1.311-6.24,2.054-9.7,2.229v-5.453c3.564-.244,6.728-1.24,9.489-2.989,2.761-1.747,4.596-4.036,5.507-6.868h-14.208v-5.399h34.13v5.399h-13.682c-.142.979-.457,2.028-.945,3.145l15.99,7.131-2.254,4.98-16.831-7.601c-1.993,2.306-4.489,4.115-7.496,5.426Z"/>
      <path class="cls-1" d="M498.851,32.352c-1.766,4.001-4.274,7.087-7.526,9.253-3.249,2.168-7.043,3.251-11.374,3.251v-5.662c3.283,0,6.106-.847,8.467-2.542,2.358-1.695,4.159-4.107,5.399-7.236,1.24-3.128,1.862-6.824,1.862-11.088v-4.771h-15.729v-5.453h21.546v10.172c0,5.382-.883,10.074-2.646,14.077ZM508.835,47.109V6.844h5.664v40.264h-5.664Z"/>
      <path class="cls-1" d="M131.535,82.892c-1.763-.856-3.118-2.045-4.063-3.565-.941-1.521-1.413-3.258-1.413-5.217s.472-3.696,1.413-5.217c.945-1.521,2.3-2.707,4.063-3.565,1.766-.856,3.836-1.284,6.213-1.284,2.412,0,4.512.428,6.294,1.284,1.782.858,3.145,2.045,4.09,3.565.941,1.521,1.413,3.26,1.413,5.217s-.472,3.696-1.413,5.217c-.945,1.521-2.308,2.709-4.09,3.565s-3.882,1.284-6.294,1.284c-2.377,0-4.447-.428-6.213-1.284ZM137.172,101.241c-2.796,1.137-5.699,1.705-8.701,1.705v-2.675c2.377,0,4.658-.401,6.839-1.206,2.185-.803,4.055-1.939,5.61-3.408,1.555-1.467,2.596-3.145,3.122-5.032h-14.995v-2.623h32.033v2.623h-13.997c-.246,1.188-.733,2.429-1.471,3.723l16.255,6.553-.945,2.569-16.934-6.973c-1.747,2.028-4.02,3.61-6.816,4.744ZM131.327,68.578c-1.624,1.346-2.438,3.191-2.438,5.532s.814,4.186,2.438,5.532,3.767,2.018,6.42,2.018c2.692,0,4.85-.672,6.478-2.018,1.624-1.346,2.435-3.189,2.435-5.532s-.81-4.186-2.435-5.532c-1.628-1.344-3.786-2.018-6.478-2.018-2.653,0-4.796.674-6.42,2.018ZM157.516,85.382v-21.915h2.83v21.915h-2.83Z"/>
      <path class="cls-1" d="M180.948,82.132l13.213,16.777-2.254,1.73-11.747-15.151c-1.221,4.508-2.892,8.1-5.004,10.773-2.116,2.675-4.589,4.274-7.419,4.798v-2.936c2.412-.559,4.481-2.202,6.213-4.929,1.728-2.726,3.057-6.275,3.982-10.643.925-4.37,1.425-9.245,1.494-14.629h-10.906v-2.726h24.434v2.726h-10.694c-.073,5.418-.507,10.155-1.313,14.208ZM201.868,103.732h-2.83v-40.264h2.83v40.264Z"/>
      <path class="cls-1" d="M239.066,80.926c-2.077,1.782-4.9,2.675-8.467,2.675s-6.378-.893-8.44-2.675-3.095-4.141-3.095-7.077c0-1.922.465-3.619,1.39-5.086.925-1.469,2.262-2.621,4.013-3.46,1.747-.839,3.79-1.26,6.132-1.26,2.377,0,4.439.42,6.186,1.26s3.084,1.991,4.013,3.46c.925,1.467,1.39,3.164,1.39,5.086,0,2.936-1.041,5.295-3.122,7.077ZM224.282,79.223c1.59,1.275,3.698,1.912,6.317,1.912,2.657,0,4.781-.637,6.371-1.912,1.59-1.277,2.385-3.068,2.385-5.374,0-2.273-.803-4.065-2.412-5.374-1.609-1.311-3.721-1.966-6.344-1.966s-4.727.655-6.317,1.966c-1.59,1.309-2.385,3.101-2.385,5.374,0,2.306.795,4.097,2.385,5.374ZM235.737,100.377v2.569h-13.839v-16.201h2.83v13.632h11.009ZM255.24,88.999v2.412h-19.922v-2.412h8.544v-4.299h2.834v4.299h8.544ZM251.416,94.846c1.501.891,2.254,2.141,2.254,3.748s-.753,2.849-2.254,3.723c-1.505.874-3.533,1.311-6.083,1.311s-4.589-.438-6.109-1.311-2.281-2.114-2.281-3.723.76-2.857,2.281-3.748,3.556-1.336,6.109-1.336,4.577.445,6.083,1.336ZM249.527,100.692c1.048-.455,1.574-1.154,1.574-2.099,0-.908-.534-1.607-1.601-2.097s-2.454-.733-4.166-.733c-1.678,0-3.049.244-4.116.733s-1.597,1.188-1.597,2.097c0,.945.522,1.644,1.571,2.099,1.048.453,2.431.682,4.143.682,1.747,0,3.145-.228,4.193-.682ZM258.493,75.106h-5.821v8.44h-2.83v-20.079h2.83v8.807h5.821v2.832Z"/>
      <path class="cls-1" d="M271.127,82.84c-2.726,1.73-6.013,2.594-9.857,2.594v-2.673c3.986,0,7.192-1.058,9.619-3.172,2.431-2.116,3.644-5.165,3.644-9.149v-3.093h-13.263v-2.623h16.044v5.034c0,.979-.054,1.922-.157,2.83h7.131v-8.861h2.726v22.441h-2.726v-10.854h-7.657c-.941,3.287-2.776,5.795-5.503,7.524ZM284.966,100.796c-1.678,1.188-3.479,1.905-5.399,2.15l-7.027-6.555c-1.187,1.855-2.619,3.356-4.297,4.51s-3.444,1.836-5.295,2.045v-2.726c1.501-.209,2.961-.883,4.378-2.018,1.417-1.137,2.604-2.623,3.564-4.456.964-1.836,1.513-3.855,1.651-6.056l2.78.367c-.211,2.131-.718,4.141-1.521,6.029l6.605,5.977c1.436-.384,2.78-1.154,4.04-2.308,1.256-1.152,2.304-2.602,3.145-4.351.837-1.747,1.329-3.652,1.467-5.714l2.78.367c-.211,2.097-.664,4.001-1.363,5.714l8.701,7.079-1.728,2.2-8.179-6.972c-1.19,1.956-2.623,3.531-4.301,4.717ZM293.564,86.588v-23.121h2.78v23.121h-2.78Z"/>
      <path class="cls-1" d="M339.648,84.334h-37.958v-2.517h37.958v2.517ZM312.518,75.682c-3.095,1.363-6.198,2.081-9.308,2.15v-2.621c2.519-.071,5.069-.647,7.657-1.732,2.584-1.083,4.812-2.569,6.682-4.456s3.049-4.036,3.54-6.447l2.78.524c-.388,1.818-1.068,3.46-2.047,4.929l16.358,7.549-1.102,2.306-16.881-7.759c-2.028,2.342-4.589,4.193-7.68,5.556ZM336.764,87.951v15.047h-32.191v-15.047h2.83v4.771h26.584v-4.771h2.776ZM333.988,95.186h-26.584v5.295h26.584v-5.295Z"/>
      <path class="cls-1" d="M366.731,97.73c1.797-.367,3.295-.847,4.481-1.442v2.778c-1.152.63-2.63,1.119-4.431,1.469s-3.625.524-5.476.524h-15.625v-36.125h2.884v33.347h12.741c1.816,0,3.625-.184,5.426-.551ZM375.46,103.785v-40.318h2.884v40.264l-2.884.054Z"/>
      <path class="cls-1" d="M407.362,97.782c1.832-.367,3.329-.847,4.481-1.442v2.778c-1.152.595-2.65,1.068-4.481,1.417-1.836.349-3.679.524-5.533.524h-14.995v-35.862h22.022v2.726h-19.189v30.409h12.269c1.782,0,3.59-.184,5.426-.551ZM418.763,83.389v20.342h-2.83v-40.264h2.83v17.144h5.821v2.778h-5.821Z"/>
    </g>
  </g>
</svg>