<?xml version="1.0" encoding="UTF-8"?>
<svg id="_레이어_1" data-name="레이어 1" xmlns="http://www.w3.org/2000/svg" viewBox="0 0 64 64">
  <defs>
    <style>
      .cls-1 {
        fill: #c80000;
      }

      .cls-2 {
        fill: #faf5f6;
      }
    </style>
  </defs>
  <circle class="cls-2" cx="32" cy="32" r="32"/>
  <g id="og">
    <path class="cls-1" d="M32,5c-14.91,0-27,12.09-27,27s12.09,27,27,27,27-12.09,27-27S46.91,5,32,5ZM43.76,40.93c-2.92.01-5.51,1.9-6.39,4.69l-2.78,8.64c-1.72.22-3.47.22-5.2,0l-2.77-8.65c-.89-2.78-3.48-4.67-6.4-4.68l-8.83-.02c-.68-1.57-1.17-3.21-1.48-4.89l7.08-4.99c2.39-1.68,3.42-4.71,2.55-7.5l-2.55-8.24c1.29-1.18,2.71-2.19,4.24-3.04l6.8,4.95c2.36,1.72,5.56,1.72,7.93,0l6.8-4.95c1.52.85,2.94,1.86,4.23,3.04l-2.55,8.24c-.87,2.79.17,5.82,2.56,7.5l7.07,4.99c-.3,1.68-.8,3.32-1.48,4.88l-8.83.03Z"/>
    <path class="cls-1" d="M39.6,25.73l-4.31-3.13c-1.96-1.44-4.63-1.44-6.6,0l-4.3,3.13c-1.98,1.43-2.81,3.97-2.04,6.29l1.64,5.06c.75,2.31,2.91,3.87,5.34,3.87h5.32c2.44,0,4.6-1.57,5.35-3.88l1.64-5.06c.76-2.32-.07-4.86-2.04-6.28Z"/>
  </g>
</svg>