<?xml version="1.0" encoding="UTF-8"?>
<svg id="_레이어_1" data-name="레이어 1" xmlns="http://www.w3.org/2000/svg" viewBox="0 0 64 64">
  <defs>
    <style>
      .cls-1 {
        fill: #c80000;
      }

      .cls-2 {
        fill: #faf6f5;
      }
    </style>
  </defs>
  <circle class="cls-2" cx="32" cy="32" r="32"/>
  <g id="rc">
    <path class="cls-1" d="M39.111,8h-14.222c-4.901,0-8.889,4.486-8.889,10v28c0,5.514,3.988,10,8.889,10h14.222c4.901,0,8.889-4.486,8.889-10v-28c0-5.514-3.988-10-8.889-10ZM44.444,46c0,3.308-2.393,6-5.333,6h-14.222c-2.94,0-5.333-2.692-5.333-6v-28c0-3.308,2.393-6,5.333-6h14.222c2.94,0,5.333,2.692,5.333,6v28Z"/>
    <rect class="cls-1" x="19.556" y="12" width="24.889" height="40"/>
  </g>
</svg>