<?xml version="1.0" encoding="utf-8"?>
<svg height="20" viewBox="0 -960 960 960" width="20" xmlns="http://www.w3.org/2000/svg">
  <path style="stroke: rgb(0, 0, 0); fill: rgb(255, 0, 0);" d="M 403.321 -820.029 L 226.773 -642.245 L 244.057 -152.105 L 723.082 -154.574 L 707.032 -812.622 L 403.321 -820.029 Z"/>
  <path d="M 276.025 -116.001 C 258.009 -116.001 242.834 -122.218 230.501 -134.651 C 218.168 -147.084 212.001 -162.304 212.001 -180.309 L 212.001 -636.615 C 212.001 -645.071 213.54 -653.211 216.617 -661.034 C 219.694 -668.857 224.514 -676.051 231.078 -682.615 L 373.385 -824.922 C 379.949 -831.486 387.143 -836.306 394.966 -839.383 C 402.789 -842.46 410.929 -843.999 419.385 -843.999 L 683.691 -843.999 C 701.696 -843.999 716.916 -837.782 729.349 -825.349 C 741.782 -812.916 747.999 -797.696 747.999 -779.691 L 747.999 -180.309 C 747.999 -162.304 741.778 -147.084 729.337 -134.651 C 716.896 -122.218 701.667 -116.001 683.651 -116.001 L 276.025 -116.001 L 276.025 -116.001 Z M 276.309 -168 L 683.691 -168 C 686.768 -168 689.589 -169.282 692.154 -171.846 C 694.718 -174.411 696 -177.232 696 -180.309 L 696 -779.691 C 696 -782.768 694.718 -785.589 692.154 -788.154 C 689.589 -790.718 686.768 -792 683.691 -792 L 414 -792 L 264 -642 L 264 -180.309 C 264 -177.232 265.282 -174.411 267.846 -171.846 C 270.411 -169.282 273.232 -168 276.309 -168 L 276.309 -168 Z M 276.309 -168 L 264 -168 L 696 -168 L 276.309 -168 L 276.309 -168 Z" style="fill: rgb(0, 8, 49);"/>
  <path style="fill: rgb(216, 216, 216); stroke: rgb(0, 0, 0);" d="M 389.74 -806.449 L 242.823 -648.418"/>
</svg>