<?xml version="1.0" encoding="UTF-8"?>
<svg id="Layer_1" xmlns="http://www.w3.org/2000/svg" version="1.1" viewBox="0 0 18 24">
  <!-- Generator: Adobe Illustrator 29.5.1, SVG Export Plug-In . SVG Version: 2.1.0 Build 141)  -->
  <defs>
    <style>
      .st0 {
        fill: red;
      }
    </style>
  </defs>
  <rect class="st0" x="2.42" y="2.02" width="13.26" height="19.76"/>
  <path d="M12.5,0h-7C2.47,0,0,2.47,0,5.5v13c0,3.03,2.47,5.5,5.5,5.5h7c3.03,0,5.5-2.47,5.5-5.5V5.5c0-3.03-2.47-5.5-5.5-5.5ZM15,18.5c0,1.38-1.12,2.5-2.5,2.5h-7c-1.38,0-2.5-1.12-2.5-2.5V5.5c0-1.38,1.12-2.5,2.5-2.5h7c1.38,0,2.5,1.12,2.5,2.5v13Z"/>
</svg>