<?xml version="1.0" encoding="UTF-8"?>
<svg id="_레이어_2" data-name="레이어 2" xmlns="http://www.w3.org/2000/svg" viewBox="0 0 906.943 110">
  <defs>
    <style>
      .cls-1 {
        fill: #000060;
      }
    </style>
  </defs>
  <g id="_레이어_1-2" data-name="레이어 1">
    <g id="logo">
      <g>
        <path id="o" class="cls-1" d="M426.375,72.583c0-5.908.985-11.158,2.955-15.754,1.968-4.594,4.664-8.511,8.088-11.746,3.422-3.235,7.43-5.697,12.027-7.385,4.594-1.688,9.47-2.532,14.63-2.532,5.25,0,10.149.843,14.698,2.532,4.548,1.688,8.533,4.15,11.956,7.385,3.423,3.235,6.12,7.152,8.088,11.746,1.97,4.596,2.955,9.847,2.955,15.754s-.985,11.161-2.955,15.755c-1.968,4.596-4.665,8.51-8.088,11.746-3.423,3.235-7.408,5.697-11.956,7.385-4.55,1.688-9.448,2.532-14.698,2.532-5.16,0-10.036-.844-14.63-2.532-4.596-1.688-8.605-4.15-12.027-7.385-3.425-3.236-6.12-7.15-8.088-11.746-1.97-4.594-2.955-9.847-2.955-15.755ZM445.928,101.842c.937.47,1.828.703,2.673.703,2.813,0,6.352-1.899,10.62-5.697,4.265-3.798,8.932-9.917,13.996-18.356,6-10.128,9.517-18.146,10.55-24.054,1.03-5.908.187-9.658-2.533-11.253-.938-.468-1.876-.703-2.813-.703-2.813,0-6.353,1.899-10.62,5.697-4.268,3.798-8.932,9.965-13.996,18.497-6.002,10.035-9.495,18.005-10.478,23.913-.985,5.908-.12,9.66,2.602,11.253Z"/>
        <path id="f" class="cls-1" d="M387.096,110v-2.954c2.905,0,4.945-.703,6.118-2.11,1.172-1.407,1.758-4.079,1.758-8.017v-56.969h-8.44v-2.813h8.44c0-5.532.328-10.128.985-13.786.655-3.657,1.71-6.774,3.165-9.354,1.453-2.578,3.398-4.899,5.838-6.963,2.155-1.874,5.11-3.517,8.862-4.923,3.75-1.407,7.783-2.11,12.097-2.11,3.75,0,6.985.47,9.706,1.407,2.719.939,5.11,2.205,7.173,3.798,1.313,1.033,2.508,2.556,3.588,4.572,1.077,2.018,1.617,4.385,1.617,7.103,0,2.908-1.078,5.535-3.235,7.877-2.158,2.346-4.971,3.517-8.44,3.517-3.846,0-6.916-1.031-9.213-3.094-2.3-2.062-3.447-4.923-3.447-8.581,0-2.719.795-5.227,2.392-7.526,1.593-2.297,4.03-3.96,7.315-4.993-.282-.374-.728-.679-1.337-.915-.611-.233-1.431-.352-2.462-.352-1.596,0-2.908.236-3.938.703-1.033.47-1.923,1.126-2.673,1.97-.843,1.033-1.501,2.486-1.97,4.36-.47,1.877-.703,4.69-.703,8.44v18.85h15.051v2.813h-15.051v55.563c0,4.596,1.077,7.666,3.236,9.213,2.155,1.547,5.11,2.321,8.862,2.321v2.954"/>
        <path id="n" class="cls-1" d="M354.754,110v-2.954c2.437,0,4.125-.703,5.063-2.11.937-1.407,1.407-4.079,1.407-8.017v-45.716c0-1.97-.235-3.609-.703-4.923-.47-1.313-1.195-2.297-2.18-2.954-.985-.655-2.322-.985-4.008-.985s-3.306.422-4.853,1.266c-1.548.844-2.813,2.04-3.798,3.587s-1.477,3.306-1.477,5.275v44.45c0,3.938.492,6.611,1.477,8.017s2.648,2.11,4.993,2.11v2.954M311.006,110v-2.954c2.907,0,4.945-.703,6.12-2.11,1.172-1.407,1.758-4.079,1.758-8.017v-44.591c0-4.22-.563-7.337-1.688-9.354-1.125-2.016-3.19-3.024-6.19-3.024v-2.954c3,.281,5.908.422,8.721.422,4.688,0,9.073-.163,13.153-.492,4.078-.327,7.852-.819,11.323-1.477v10.128c2.25-3.75,5.275-6.447,9.073-8.088,3.797-1.64,8.228-2.462,13.292-2.462,4.313,0,7.713.541,10.198,1.618,2.484,1.079,4.383,2.416,5.698,4.009,1.407,1.688,2.437,3.938,3.094,6.752.655,2.813.985,6.612.985,11.394v38.12c0,3.938.585,6.611,1.758,8.017,1.172,1.407,3.212,2.11,6.12,2.11v2.954"/>
        <g id="i">
          <path class="cls-1" d="M299.824,34.354c1.345-.501,2.641-1.036,3.833-1.649,1.735-.89,3.142-1.92,4.22-3.094,1.077-1.172,1.805-2.532,2.18-4.079.374-1.547.282-3.258-.28-5.135-.753-2.719-2.065-4.618-3.94-5.697-1.876-1.077-4.033-1.618-6.47-1.618-2.294,0-4.769.41-7.422,1.218,5.012,5.959,7.687,13.067,7.879,20.054Z"/>
          <path class="cls-1" d="M314.558,107.328h-1.125c-1.315,0-2.322-.352-3.025-1.055s-1.195-1.477-1.477-2.321c-.375-.937-.611-2.016-.703-3.236v-53.453c0-1.407.163-2.835.493-4.29.327-1.453.584-2.508.773-3.165,0-.563-.095-.985-.282-1.266l-.14-.141c-.095-.282-.423-.422-.985-.422h-.422c-2.44.563-4.995,1.22-7.666,1.97-.17.048-.333.091-.502.138-.7,4.921-2.44,9.405-5.008,13.229,2.642,2.242,4.934,6.427,4.934,14.2,0,10.259-4.85,22.42-13.702,32.435v1.889c0,1.407-.235,2.486-.703,3.235-.47.751-.985,1.315-1.547,1.688-.751.376-1.548.611-2.392.703h-.985c-.843,0-1.125.33-.843.984l.282.703c.28.563.703.844,1.265.844h32.775c.468,0,.845-.233,1.126-.703l.562-.985c.374-.655.141-.984-.703-.984Z"/>
        </g>
      </g>
      <g>
        <g id="c">
          <path class="cls-1" d="M243.061,17.556c4.031-3.227,8.747-5.183,13.599-5.183,6.049,0,8.3,2.111,8.3,5.627,0,3.095-2.392,4.502-5.346,6.612-3.938,2.813-8.581,7.315-8.581,15.334,0,8.44,6.612,16.88,17.725,16.88,13.505,0,21.242-10.551,21.242-21.664,0-12.801-11.816-25.743-33.621-25.743-5.682,0-11.105.901-16.198,2.516,1.147,1.705,2.119,3.58,2.88,5.622Z"/>
          <path class="cls-1" d="M287.467,60.624c-.703,0-1.407.563-1.407,1.688,0,1.266.703,2.251.703,4.642,0,10.128-8.3,17.584-19.835,17.584-13.154,0-30.023-10.983-34.556-31.42-.973.666-1.986,1.281-3.045,1.823.439,1.33.674,2.766.674,4.276,0,8.64-7.454,14.911-17.724,14.911-2.845,0-5.671-.427-8.292-1.021-.265,3.42-.746,6.699-1.386,9.84,5.547,15.494,19.207,27.053,39.008,27.053,28.698,0,47.97-24.758,47.97-42.483,0-2.673-.422-6.893-2.11-6.893Z"/>
        </g>
        <g id="f-2" data-name="f">
          <path class="cls-1" d="M177.954,31.505c0-8.159-5.345-12.52-11.676-12.52-1.482,0-2.631.246-3.653.519,2.219,4.335,3.301,8.99,3.301,13.548,0,4.982-1.129,9.594-3.154,13.606,7.099-.4,15.182-5.076,15.182-15.154Z"/>
          <path class="cls-1" d="M183.581,21.235c.422,0,.985.282,1.828,1.547,3.939,5.486,13.927,25.462,30.527,25.462,10.41,0,19.131-7.877,19.131-19.975,0-12.801-9.706-18.85-18.709-18.85-9.284,0-14.489,6.471-17.021,9.706-2.251,2.814-3.939,3.377-5.486,3.377-7.596,0-14.77-13.083-29.682-13.083-2.895,0-5.629.497-8.103,1.418.75.706,1.459,1.433,2.121,2.183,1.499-.688,3.493-1.069,5.841-1.069,14.911,0,18.569,15.615,18.569,25.321,0,4.924-.984,9.847-2.532,14.208-.282.985-.563,1.266-1.126,1.266-.985,0-4.502-1.125-10.269-1.125-1.921,0-3.777.179-5.584.466.181.853.325,1.773.424,2.768,1.516-.269,3.227-.421,5.16-.421,2.532,0,5.205.282,7.877.703.844.141,1.407.563,1.407,1.126,0,.281-.281.703-.563,1.266-3.711,6.782-9.169,11.572-14.784,12.384-2.241,12.332-8.019,24.226-17.104,33.315,4.464,4.254,10.43,6.772,17.258,6.772,8.721,0,18.146-4.079,24.195-13.364,4.642-7.034,7.456-17.725,7.456-30.667,0-2.673-.14-3.939-.14-5.064,0-.563.14-.703.422-.703,2.11,0,10.41,4.079,17.584,4.079,4.361,0,7.877-1.828,7.877-5.064,0-1.97-1.407-3.377-3.798-3.377-2.672,0-3.939,1.688-10.972,1.688-3.377,0-6.752-.422-9.988-.985-1.266-.281-1.547-.563-1.688-1.688-1.407-10.691-5.064-20.82-10.41-31.511-.281-.422-.422-.985-.422-1.267,0-.563.282-.844.703-.844Z"/>
        </g>
        <path id="e" class="cls-1" d="M151.719,51.339c-.703,0-1.407.563-1.407,1.688,0,1.266.703,2.251.703,4.642,0,11.113-11.535,20.257-28.276,20.257-12.379,0-18.99-6.049-18.99-12.098,0-3.798,3.094-7.596,9.706-7.596,5.486,0,9.143,1.547,12.661,1.547,2.813,0,4.22-1.407,4.22-3.095,0-1.547-1.266-2.672-3.798-2.672-1.547,0-2.532.422-4.079.422-7.737,0-9.706-8.159-9.706-15.052,0-14.77,7.456-27.29,13.926-27.29,3.236,0,4.502,2.11,4.502,4.22,0,3.236-3.095,4.502-6.19,7.737-2.392,2.532-5.064,6.049-5.064,11.816,0,9.425,7.315,16.318,17.162,16.318,12.098,0,18.991-9.425,18.991-19.131,0-11.535-9.847-23.633-33.34-23.633-11.293,0-21.275,2.576-28.311,7.085,3.079,4.472,4.885,9.806,4.885,15.986,0,6.65-2.293,12.53-6.143,16.923,3.937,2.257,9.222,3.934,16.064,4.881.703.141,1.126.282,1.126.844s-1.126.985-2.392.985c-5.373,0-11.48.728-17.287,2.392,2.23,4.421,3.567,9.58,3.567,15.755,0,11.593-4.894,22.038-13.056,30,6.181,3.62,14.028,5.731,22.555,5.731,31.088,0,50.079-25.039,50.079-51.768,0-2.672-.422-6.893-2.11-6.893Z"/>
        <path id="s" class="cls-1" d="M63.443,54.012c0-2.954-1.969-5.908-5.767-5.908-4.642,0-6.752,4.642-9.144,7.737-3.517,4.642-9.566,9.988-18.85,9.988-12.098,0-21.242-8.862-21.242-21.664,0-21.945,26.447-34.746,47.126-34.746,16.177,0,33.902,7.737,33.902,23.071,0,9.566-6.752,15.192-14.63,15.192-8.018,0-14.49-5.627-14.49-14.067,0-4.22,1.547-8.862,1.547-12.661,0-6.19-4.079-9.003-9.003-9.003-6.471,0-10.691,4.782-10.691,11.395,0,8.581,7.033,15.052,16.459,20.397,13.645,7.737,25.743,14.63,25.743,30.527,0,20.257-19.694,35.731-44.171,35.731C16.6,110,0,95.511,0,72.44c0-11.254,3.938-20.398,6.19-20.398.422,0,.843.422.843,1.126,0,1.547-1.688,2.954-1.688,7.034,0,9.284,9.143,14.63,22.648,14.63,20.82,0,35.45-12.801,35.45-20.819Z"/>
      </g>
    </g>
    <g id="text">
      <path class="cls-1" d="M575.503,22.67l12.323,18.987-5.163,3.27-9.158-14.768c-1.518,4.571-3.479,8.122-5.885,10.654-2.405,2.531-5.181,3.885-8.326,4.061v-6.171c2.332-.351,4.339-1.916,6.023-4.694,1.684-2.777,2.97-6.469,3.858-11.076.888-4.605,1.332-9.757,1.332-15.453l6.106.211c0,5.38-.37,10.373-1.11,14.979ZM597.762,47.089h-5.994v-20.885h-9.714v-5.59h9.714V6.584h5.994v40.505Z"/>
      <path class="cls-1" d="M626.405,30.37h14.765v9.863h-29.531v2.584h30.086v3.956h-36.025v-9.915h29.531v-2.532h-29.641v-3.956h14.821v-2.901h-17.375v-4.483h40.689v4.483h-17.319v2.901ZM610.252,19.452c-3.294-1.195-4.941-3.093-4.941-5.696s1.647-4.509,4.941-5.723c3.293-1.213,7.678-1.819,13.155-1.819s9.844.606,13.1,1.819c3.256,1.213,4.885,3.121,4.885,5.723s-1.629,4.501-4.885,5.696c-3.256,1.196-7.623,1.793-13.1,1.793s-9.862-.598-13.155-1.793ZM614.913,11.436c-2.146.527-3.219,1.301-3.219,2.321s1.073,1.793,3.219,2.32c2.146.528,4.977.792,8.494.792,3.477,0,6.291-.264,8.437-.792,2.146-.527,3.22-1.3,3.22-2.32s-1.074-1.793-3.22-2.321-4.959-.791-8.437-.791c-3.516,0-6.348.264-8.494.791Z"/>
      <path class="cls-1" d="M681.079,12.095c2.22,3.183,3.33,7.938,3.33,14.267s-1.11,11.085-3.33,14.267c-2.22,3.183-5.237,4.773-9.048,4.773-3.849,0-6.893-1.59-9.132-4.773-2.239-3.182-3.358-7.938-3.358-14.267s1.119-11.084,3.358-14.267c2.239-3.182,5.283-4.773,9.132-4.773,3.811,0,6.827,1.591,9.048,4.773ZM667.257,16.13c-1.185,2.181-1.776,5.591-1.776,10.232s.591,8.052,1.776,10.232c1.185,2.18,2.776,3.27,4.774,3.27,1.961,0,3.524-1.09,4.69-3.27,1.166-2.18,1.748-5.591,1.748-10.232s-.582-8.051-1.748-10.232c-1.166-2.18-2.729-3.27-4.69-3.27-1.998,0-3.59,1.09-4.774,3.27ZM690.405,47.089V6.584h6.05v40.505h-6.05Z"/>
      <path class="cls-1" d="M711.664,32.005h-8.659v-14.768h11.989v-4.905h-11.989v-4.958h17.54v14.557h-11.989v5.116h3.497c4.588,0,8.067-.475,10.436-1.424v4.905c-2.443.985-6.051,1.477-10.825,1.477ZM742.305,46.772h-36.969v-11.972h6.106v6.593h30.863v5.379ZM724.876,36.91V6.795h5.607v10.126h5.329V6.584h5.662v31.012h-5.662v-15.295h-5.329v14.609h-5.607Z"/>
      <path class="cls-1" d="M745.913,45.348v-5.59h40.689v5.59h-40.689ZM754.573,13.44v13.238h30.03v5.538h-36.192V7.849h35.748v5.591h-29.587Z"/>
      <path class="cls-1" d="M809.414,25.571h18.096v5.168h-18.096v14.557h-6.328V8.377h26.701v5.169h-20.372v12.025Z"/>
      <path class="cls-1" d="M842.276,43.318c-2.998-1.635-5.357-3.894-7.077-6.777-1.721-2.883-2.582-6.118-2.582-9.705s.861-6.821,2.582-9.704c1.72-2.883,4.079-5.143,7.077-6.777,2.998-1.635,6.364-2.453,10.103-2.453,2.998,0,5.726.51,8.187,1.53,2.461,1.02,4.542,2.514,6.245,4.483l-4.052,3.797c-2.739-2.918-6.106-4.377-10.103-4.377-2.59,0-4.922.58-6.994,1.74-2.073,1.16-3.692,2.769-4.858,4.826-1.165,2.057-1.748,4.37-1.748,6.936s.583,4.878,1.748,6.936c1.166,2.057,2.784,3.666,4.858,4.826,2.072,1.161,4.403,1.741,6.994,1.741,3.997,0,7.364-1.477,10.103-4.43l4.052,3.797c-1.702,2.004-3.794,3.516-6.272,4.536-2.48,1.02-5.218,1.529-8.216,1.529-3.701,0-7.05-.817-10.047-2.453Z"/>
      <path class="cls-1" d="M894.01,43.872c-2.591.352-5.588.527-8.993.527h-15.376v-2.795h15.654c3.293,0,6.216-.175,8.77-.527,2.554-.351,4.534-.861,5.94-1.53v2.795c-1.407.668-3.406,1.179-5.995,1.53ZM889.819,9.353c1.868,1.073,3.33,2.558,4.385,4.457,1.055,1.898,1.582,4.061,1.582,6.487,0,2.392-.527,4.536-1.582,6.435-1.054,1.899-2.517,3.385-4.385,4.457-1.869,1.073-3.988,1.609-6.355,1.609s-4.488-.536-6.356-1.609c-1.869-1.072-3.33-2.558-4.385-4.457-1.055-1.898-1.582-4.043-1.582-6.435,0-2.426.527-4.588,1.582-6.487,1.054-1.899,2.516-3.384,4.385-4.457,1.869-1.072,3.987-1.609,6.356-1.609s4.487.537,6.355,1.609ZM878.579,11.726c-1.407.862-2.508,2.04-3.303,3.534-.796,1.495-1.193,3.174-1.193,5.037,0,1.829.397,3.49,1.193,4.984.795,1.495,1.896,2.663,3.303,3.507,1.406.844,3.034,1.266,4.885,1.266s3.487-.422,4.912-1.266c1.423-.844,2.526-2.013,3.302-3.507.777-1.494,1.166-3.155,1.166-4.984,0-1.863-.389-3.542-1.166-5.037-.776-1.494-1.879-2.671-3.302-3.534-1.425-.861-3.063-1.292-4.912-1.292s-3.479.431-4.885,1.292ZM904.001,47.089V6.584h2.942v40.505h-2.942Z"/>
      <path class="cls-1" d="M599.539,101.834h-40.189v-2.795h18.54v-11.393h-15.598v-22.362h34.305v22.362h-15.71v11.393h18.651v2.795ZM593.599,84.852v-16.771h-28.366v16.771h28.366Z"/>
      <path class="cls-1" d="M603.313,87.752v-2.637h40.189v2.637h-40.189ZM641.336,100.621v2.689h-34.971v-11.708h3.053v9.019h31.917ZM609.474,66.866v10.338h31.418v2.584h-34.416v-15.506h33.971v2.584h-30.974Z"/>
      <path class="cls-1" d="M673.364,84.456c-3.664,1.67-8.198,2.505-13.6,2.505v-2.795c6.291,0,11.175-1.204,14.654-3.613,3.478-2.408,5.218-5.968,5.218-10.68v-2.374h-19.872v-2.689h22.925v4.8c0,1.617-.204,3.164-.61,4.641h10.713v-10.706h2.998v27.795h-2.998v-14.346h-11.657c-1.518,3.305-4.108,5.793-7.771,7.463ZM671.199,100.964c-3.072,1.494-6.236,2.259-9.492,2.294v-2.848c2.59-.035,5.125-.606,7.605-1.714,2.48-1.108,4.617-2.664,6.411-4.668,1.795-2.004,2.97-4.289,3.525-6.856l3.108.527c-.519,2.04-1.165,3.692-1.942,4.958l17.207,8.544-1.387,2.584-17.431-8.86c-1.998,2.531-4.534,4.545-7.605,6.039Z"/>
    </g>
  </g>
</svg>