<svg version="1.2" xmlns="http://www.w3.org/2000/svg" viewBox="0 0 973 146" width="973" height="146">
	<title>sefcinfo-svg</title>
	<defs>
		<clipPath clipPathUnits="userSpaceOnUse" id="cp1">
			<path d="m-53-467h1080v1080h-1080z"/>
		</clipPath>
	</defs>
	<style>
		.s0 { fill: #000060 } 
	</style>
	<g id="Clip-Path: 대지 1" clip-path="url(#cp1)">
		<g id="대지 1">
			<path id="SEFCINFO" fill-rule="evenodd" class="s0" d="m60.8 146q-28.6 0-44.6-12.8-15.8-13-15.8-36.2h46.2q0 6.8 3.6 10.4 3.6 3.6 10.4 3.6 5.8 0 9-2.2 3.2-2.4 3.2-6.6 0-5.2-5.6-8.4-5.4-3.4-17.4-5.4-24.8-4.2-36.6-15-11.8-10.8-11.8-29.2 0-20.6 15-32.4 15.2-11.8 41.6-11.8 18 0 31.2 5.8 13.4 5.8 20.6 16.8 7.4 10.8 7.6 25.4h-45.2q0-6.6-3.6-10-3.4-3.6-9.8-3.6-5.6 0-8.8 2.4-3.2 2.4-3.2 6.4 0 4.8 5 7.8 5.2 3 17.8 5.4 26.2 5 38.2 15.6 12.2 10.6 12.2 28.6 0 21.4-15.6 33.4-15.6 12-43.6 12zm69.6-3v-140h100.8v35.8h-53.8v16.2h48.6v34.8h-48.6v16.8h55.8v36.4zm115.2 0v-140h96.4v41.6h-48.4v21.6h43.4v39.8h-43.4v37zm173.4 3q-22 0-38.8-9.2-16.8-9.2-26.2-25.8-9.2-16.6-9.2-38 0-21.4 9.2-38 9.4-16.6 26.2-25.8 16.8-9.2 38.4-9.2 20 0 35.8 7.4 16 7.4 26 21.4 10.2 13.8 13.4 32.6h-47.4q-2.8-8-9.8-12.6-6.8-4.8-15.8-4.8-12.2 0-19.8 8-7.4 8-7.4 21 0 12.8 7.4 21 7.6 8 19.4 8 9.4 0 16.4-4.8 7-4.8 10-13.2h47.6q-2.4 18.6-12.8 32.6-10.2 14-26.4 21.8-16.2 7.6-36.2 7.6zm85-3v-140h48.4v140zm65.4 0v-140h39.2l44.8 60.4h0.8l-0.4-17.8v-42.6h47.4v140h-39.2l-45-61h-0.6l0.4 18.4v42.6zm148.8 0v-140h96.4v41.6h-48.4v21.6h43.4v39.8h-43.4v37zm176.6 3q-22.6 0-40.2-9.2-17.6-9.4-27.4-26-9.8-16.6-9.8-37.8 0-21.2 9.8-37.8 9.8-16.6 27.4-25.8 17.6-9.4 40.2-9.4 22.8 0 40.4 9.4 17.6 9.2 27.4 25.8 9.8 16.6 9.8 37.8 0 21.2-9.8 37.8-9.8 16.6-27.4 26-17.6 9.2-40.4 9.2zm-28.6-73q0 12.8 8 21 8 8 20.6 8 12.6 0 20.6-8 8.2-8.2 8.2-21 0-12.8-8.2-20.8-8-8.2-20.6-8.2-12.6 0-20.6 8.2-8 8-8 20.8z"/>
		</g>
	</g>
</svg>