<svg xmlns="http://www.w3.org/2000/svg" width="1080" height="110" viewBox="0 0 1080 110">
  <defs>
    <style>
      .cls-1 {
        fill: #000060;
        fill-rule: evenodd;
      }
    </style>
  </defs>
  <g id="대지_1" data-name="대지 1">
    <path id="SEFCINFO" class="cls-1" d="M45.286,287.609q20.983,0,32.676-8.993t11.691-25.032q0-13.489-9.068-21.434t-28.7-11.692q-9.443-1.8-13.265-4.047t-3.822-5.845a5.7,5.7,0,0,1,2.4-4.8,10.766,10.766,0,0,1,6.6-1.8q4.8,0,7.42,2.623t2.623,7.569H87.7a34.433,34.433,0,0,0-5.621-19.111,34.781,34.781,0,0,0-15.439-12.516q-9.97-4.345-23.458-4.346-19.785,0-31.1,8.843T0.768,211.315q0,13.792,8.844,21.884t27.43,11.242q8.993,1.5,13.115,3.972t4.122,6.37a5.65,5.65,0,0,1-2.4,4.872,11.407,11.407,0,0,1-6.745,1.723q-5.1,0-7.794-2.7t-2.7-7.794H0.019q0,17.389,11.916,27.055t33.351,9.668h0Zm52.162-2.248h77.044v-27.28h-41.82V245.49H169.1V219.409H132.671V207.268h40.321v-26.83H97.447V285.361Zm86.337,0h35.973v-27.73h32.527V227.8H219.757V211.615h36.274V180.438H183.784V285.361Zm129.954,2.248a62.425,62.425,0,0,0,27.13-5.771,51.116,51.116,0,0,0,29.379-40.7H334.573a19.67,19.67,0,0,1-7.494,9.893,21.208,21.208,0,0,1-12.291,3.6,18.823,18.823,0,0,1-14.465-6.07q-5.62-6.07-5.621-15.664,0-9.741,5.621-15.738t14.764-6A20.671,20.671,0,0,1,327,214.688a18.7,18.7,0,0,1,7.269,9.518H369.8A57.459,57.459,0,0,0,359.83,199.7a49.489,49.489,0,0,0-19.486-15.964,63.068,63.068,0,0,0-26.9-5.545q-16.188,0-28.779,6.894A48.91,48.91,0,0,0,265.1,204.42q-6.969,12.444-6.97,28.479t6.97,28.479a48.872,48.872,0,0,0,19.561,19.336q12.591,6.9,29.078,6.895h0Zm63.7-2.248h36.273V180.438H377.442V285.361Zm49.014,0H461.98V253.434l-0.3-13.79h0.449l33.726,45.717h29.378V180.438H489.709v31.926l0.3,13.341h-0.6l-33.575-45.267H426.456V285.361Zm111.518,0h35.973v-27.73h32.526V227.8H573.947V211.615h36.274V180.438H537.974V285.361Zm132.353,2.248q17.086,0,30.277-6.97a50.953,50.953,0,0,0,20.535-19.41,58.306,58.306,0,0,0,0-56.659A50.975,50.975,0,0,0,700.6,185.159q-13.191-6.969-30.277-6.969-16.941,0-30.128,6.969a50.944,50.944,0,0,0-20.535,19.411,58.306,58.306,0,0,0,0,56.659,50.921,50.921,0,0,0,20.535,19.41q13.188,6.971,30.128,6.97h0ZM648.892,232.9q0-9.589,6-15.663t15.439-6.071q9.442,0,15.513,6.071t6.071,15.663q0,9.594-6.071,15.664t-15.513,6.07q-9.444,0-15.439-6.07t-6-15.664h0Z" transform="translate(0 -178)"/>
    <path id="서울_이랜드_FC_팬_페이지" data-name="서울 이랜드 FC 팬 페이지" class="cls-1" d="M809.268,182.646h-8.993v13.268h-7.939V204.8h7.939v20.485h8.993V182.646ZM788.45,183.7l-9.215-.278a85.626,85.626,0,0,1-1.249,15.461,32.77,32.77,0,0,1-3.5,10.548q-2.249,3.8-5.079,4.08v9.938a12.147,12.147,0,0,0,8.382-3.165,24.47,24.47,0,0,0,6.385-9.437L791,223.339l7.827-5.052L787.34,199.023a99.412,99.412,0,0,0,1.11-15.322h0Zm45.633,14.6q8.715,0,13.629-1.97t4.913-6.3q0-4.275-4.913-6.274t-13.629-2q-8.715,0-13.656,2t-4.941,6.274q0,4.329,4.941,6.3t13.656,1.97h0Zm0-9.881a38.109,38.109,0,0,1,6.607.444q2.385,0.444,2.387,1.166,0,0.777-2.36,1.193a40.431,40.431,0,0,1-6.634.417,41.056,41.056,0,0,1-6.634-.417q-2.415-.416-2.415-1.193,0-.721,2.443-1.166a38.688,38.688,0,0,1,6.606-.444h0Zm4.5,17.265h16.044v-6.773H813.487v6.773h16.1v1.332H815.652v5.829h27.924v0.888H815.763v11.714h36.973v-5.94h-28.09V218.62h27.813v-11.6H838.58v-1.332Zm69.505,19.6V182.646h-9.049v42.636h9.049Zm-25.7-42.3a10.8,10.8,0,0,0-9.465,5.08q-3.414,5.079-3.414,15.405t3.414,15.406a11.385,11.385,0,0,0,18.958,0q3.385-5.081,3.387-15.406t-3.387-15.4a10.779,10.779,0,0,0-9.493-5.08h0Zm0,8.716q4,0,4,11.769,0,6.441-1.082,9.1t-2.915,2.664q-1.832,0-2.914-2.664t-1.083-9.1q0-11.769,4-11.769h0Zm59.956,22.1V200.855h2.387v13.657h8.439V182.646h-8.439v9.715h-2.387v-9.548h-8.272V213.79h8.272Zm-9.881-4.885v-7.55a15.4,15.4,0,0,1-3.859,1.027,33.187,33.187,0,0,1-5.024.361h-2.331v-2.61H931.29V182.979H913.025v7.661h9.993v2.387h-9.993V210.4h10.1a32.316,32.316,0,0,0,5.218-.417,18.05,18.05,0,0,0,4.109-1.082h0Zm21.04,8.049H924.461v-4.885H915.3v13.379H953.5v-8.494Zm41.969-24.648v-8.827H958.436v26.758h37.473v-8.771h-28.2v-9.16h27.758Zm2.054,31.643v-8.882H956.382v8.882h41.137Zm25.541-31.31h18.76v-8.105H1013.4v38.86h9.66v-13.6h16.59v-8.105h-16.59v-9.049Zm41.3,31.477a21.04,21.04,0,0,0,8.99-1.86,17.484,17.484,0,0,0,6.66-5.357l-6.21-6a10.732,10.732,0,0,1-8.89,4.608,10.952,10.952,0,0,1-5.63-1.443,10.029,10.029,0,0,1-3.86-4.081,13.744,13.744,0,0,1,0-12.046,10.035,10.035,0,0,1,3.86-4.081,11.207,11.207,0,0,1,14.52,3.109l6.21-6a17.239,17.239,0,0,0-6.66-5.329,21.185,21.185,0,0,0-8.94-1.832,20.737,20.737,0,0,0-10.32,2.581,18.821,18.821,0,0,0-7.25,7.19,21.876,21.876,0,0,0-.02,20.762,18.576,18.576,0,0,0,7.21,7.189,20.776,20.776,0,0,0,10.33,2.582h0ZM800.219,273.135V259.7h1.888v14.156h8.16V242.6h-8.16V251.1h-1.888v-8.327H792.17v30.366h8.049Zm-9.16-5.329V260.2a16.406,16.406,0,0,1-2.387.722V250.6h1.61v-7.661H769.52V250.6h1.554v10.992H769.3v7.606h12.268q6.328,0,9.493-1.388h0Zm-11.269-6.218H778.9V250.6h2v10.992h-1.11ZM810.6,276.91H781.622v-5.662h-9.216V285.4h38.2V276.91ZM865.227,242.6h-8.161v42.636h8.161V242.6Zm-17.876.167v14.989H845.02v8.993h2.331v17.765h8.05V242.769h-8.05Zm-3.886,31.7V251.707h1.555v-8.272H824.535v8.272h1.443v23.427H824.2v8.272h12.713a32.592,32.592,0,0,0,4.885-.361,16.407,16.407,0,0,0,4.052-1.083V273.8l-1.165.334Zm-9.6.666V251.707h1.721v23.427h-1.721Zm74.224,10.1V242.6h-9.049v42.636h9.049Zm-25.7-42.3a10.8,10.8,0,0,0-9.465,5.08q-3.414,5.079-3.414,15.405t3.414,15.406a11.385,11.385,0,0,0,18.958,0q3.385-5.081,3.387-15.406t-3.387-15.405a10.779,10.779,0,0,0-9.493-5.08h0Zm0,8.716q4,0,4,11.769,0,6.441-1.082,9.1t-2.915,2.664q-1.832,0-2.914-2.664t-1.083-9.1q0-11.769,4-11.769h0Zm69.671-9.049H943v42.636h9.049V242.6ZM932.011,252.1h8.217v-8.66H914.3v8.66h8.661a46.644,46.644,0,0,1-1.416,11.27,20.489,20.489,0,0,1-3.5,7.55,6.854,6.854,0,0,1-4.913,2.886v9.605a13.4,13.4,0,0,0,8.439-2.693,21.4,21.4,0,0,0,6.439-8.244l7.273,10.826,7.161-5.607-11.38-15.822a57.254,57.254,0,0,0,.943-9.771h0Z" transform="translate(0 -178)"/>
  </g>
</svg>
