<?xml version="1.0" encoding="utf-8"?>
<svg height="20" viewBox="0 -960 960 960" width="20" xmlns="http://www.w3.org/2000/svg">
  <path d="M 180.309 -212.001 C 162.304 -212.001 147.084 -218.222 134.651 -230.663 C 122.218 -243.104 116.001 -258.333 116.001 -276.349 L 116.001 -683.975 C 116.001 -701.991 122.218 -717.166 134.651 -729.499 C 147.084 -741.832 162.304 -747.999 180.309 -747.999 L 779.691 -747.999 C 797.696 -747.999 812.916 -741.778 825.349 -729.337 C 837.782 -716.896 843.999 -701.667 843.999 -683.651 L 843.999 -276.025 C 843.999 -258.009 837.782 -242.834 825.349 -230.501 C 812.916 -218.168 797.696 -212.001 779.691 -212.001 L 180.309 -212.001 Z" style="fill: rgb(255, 255, 0); transform-box: fill-box; transform-origin: 50% 50%; stroke: rgb(0, 8, 49); stroke-width: 5px; stroke-linecap: round; stroke-linejoin: round;" transform="matrix(0, 1.000009, -0.999991, 0, 0.000055, -0.000012)"/>
</svg>