<svg id="_티켓_3" data-name="티켓 3" xmlns="http://www.w3.org/2000/svg" viewBox="0 0 100 220">
  <defs>
    <style>
      .cls-1 {
        fill: #d6bb9b;
      }

      .cls-2, .cls-3 {
        fill: #f5efee;
      }

      .cls-3 {
        stroke: #0b0138;
        stroke-miterlimit: 10;
      }

      .cls-4 {
        fill: #0b0138;
      }
    </style>
  </defs>
  <rect class="cls-2" width="100" height="220"/>
  <path class="cls-3" d="M90,200V20c-5.52,0-10-4.48-10-10H20c0,5.52-4.48,10-10,10v180c5.52,0,10,4.48,10,10h60c0-5.52,4.48-10,10-10Z"/>
  <g id="sefcinfo">
    <g>
      <path id="o" class="cls-4" d="M57.98,200.8c0-.27.04-.51.13-.72.09-.21.21-.39.37-.53.16-.15.34-.26.55-.34.21-.08.43-.12.66-.12s.46.04.67.12c.21.08.39.19.54.34.16.15.28.33.37.53.09.21.13.45.13.72s-.04.51-.13.72c-.09.21-.21.39-.37.53-.16.15-.34.26-.54.34-.21.08-.43.12-.67.12s-.46-.04-.66-.12c-.21-.08-.39-.19-.55-.34-.16-.15-.28-.32-.37-.53-.09-.21-.13-.45-.13-.72ZM58.87,202.13s.08.03.12.03c.13,0,.29-.09.48-.26.19-.17.41-.45.64-.83.27-.46.43-.82.48-1.09.05-.27,0-.44-.12-.51-.04-.02-.09-.03-.13-.03-.13,0-.29.09-.48.26-.19.17-.41.45-.64.84-.27.46-.43.82-.48,1.09-.04.27,0,.44.12.51h0Z"/>
      <path id="f" class="cls-4" d="M56.19,202.5v-.13c.13,0,.22-.03.28-.1.05-.06.08-.19.08-.36v-2.59h-.38v-.13h.38c0-.25.01-.46.04-.63.03-.17.08-.31.14-.43.07-.12.15-.22.27-.32.1-.09.23-.16.4-.22.17-.06.35-.1.55-.1.17,0,.32.02.44.06.12.04.23.1.33.17.06.05.11.12.16.21.05.09.07.2.07.32,0,.13-.05.25-.15.36-.1.11-.23.16-.38.16-.17,0-.31-.05-.42-.14-.1-.09-.16-.22-.16-.39,0-.12.04-.24.11-.34.07-.1.18-.18.33-.23-.01-.02-.03-.03-.06-.04-.03-.01-.07-.02-.11-.02-.07,0-.13.01-.18.03-.05.02-.09.05-.12.09-.04.05-.07.11-.09.2-.02.09-.03.21-.03.38v.86h.68v.13h-.68v2.53c0,.21.05.35.15.42.1.07.23.11.4.11v.13"/>
      <path id="n" class="cls-4" d="M54.72,202.5v-.13c.11,0,.19-.03.23-.1.04-.06.06-.19.06-.36v-2.08c0-.09-.01-.16-.03-.22-.02-.06-.05-.1-.1-.13-.04-.03-.11-.04-.18-.04s-.15.02-.22.06c-.07.04-.13.09-.17.16s-.07.15-.07.24v2.02c0,.18.02.3.07.36s.12.1.23.1v.13M52.73,202.5v-.13c.13,0,.22-.03.28-.1.05-.06.08-.19.08-.36v-2.03c0-.19-.03-.33-.08-.43-.05-.09-.14-.14-.28-.14v-.13c.14.01.27.02.4.02.21,0,.41,0,.6-.02.19-.01.36-.04.51-.07v.46c.1-.17.24-.29.41-.37.17-.07.37-.11.6-.11.2,0,.35.02.46.07.11.05.2.11.26.18.06.08.11.18.14.31.03.13.04.3.04.52v1.73c0,.18.03.3.08.36.05.06.15.1.28.1v.13"/>
      <g id="i">
        <path class="cls-4" d="M52.22,199.06c.06-.02.12-.05.17-.07.08-.04.14-.09.19-.14.05-.05.08-.12.1-.19.02-.07.01-.15-.01-.23-.03-.12-.09-.21-.18-.26-.09-.05-.18-.07-.29-.07-.1,0-.22.02-.34.06.23.27.35.59.36.91h0Z"/>
        <path class="cls-4" d="M52.89,202.38h-.05c-.06,0-.11-.02-.14-.05s-.05-.07-.07-.11c-.02-.04-.03-.09-.03-.15v-2.43c0-.06,0-.13.02-.2.01-.07.03-.11.04-.14,0-.03,0-.04-.01-.06h0s-.02-.03-.04-.03h-.02c-.11.03-.23.06-.35.09,0,0-.02,0-.02,0-.03.22-.11.43-.23.6.12.1.22.29.22.65,0,.47-.22,1.02-.62,1.47v.09c0,.06-.01.11-.03.15-.02.03-.04.06-.07.08-.03.02-.07.03-.11.03h-.04s-.05.01-.04.04v.03s.04.04.07.04h1.49s.04-.01.05-.03l.03-.04s0-.04-.03-.04h0Z"/>
      </g>
    </g>
    <g>
      <g id="c">
        <path class="cls-4" d="M49.64,198.3c.18-.15.4-.24.62-.24.27,0,.38.1.38.26,0,.14-.11.2-.24.3-.18.13-.39.33-.39.7,0,.38.3.77.81.77.61,0,.97-.48.97-.98,0-.58-.54-1.17-1.53-1.17-.26,0-.5.04-.74.11.05.08.1.16.13.26h0Z"/>
        <path class="cls-4" d="M51.66,200.26s-.06.03-.06.08c0,.06.03.1.03.21,0,.46-.38.8-.9.8-.6,0-1.36-.5-1.57-1.43-.04.03-.09.06-.14.08.02.06.03.13.03.19,0,.39-.34.68-.81.68-.13,0-.26-.02-.38-.05-.01.16-.03.3-.06.45.25.7.87,1.23,1.77,1.23,1.3,0,2.18-1.13,2.18-1.93,0-.12-.02-.31-.1-.31h0Z"/>
      </g>
      <g id="f-2">
        <path class="cls-4" d="M46.68,198.93c0-.37-.24-.57-.53-.57-.07,0-.12.01-.17.02.1.2.15.41.15.62,0,.23-.05.44-.14.62.32-.02.69-.23.69-.69h0Z"/>
        <path class="cls-4" d="M46.94,198.47s.04.01.08.07c.18.25.63,1.16,1.39,1.16.47,0,.87-.36.87-.91,0-.58-.44-.86-.85-.86s-.66.29-.77.44c-.1.13-.18.15-.25.15-.35,0-.67-.59-1.35-.59-.13,0-.26.02-.37.06.03.03.07.07.1.1.07-.03.16-.05.27-.05.68,0,.84.71.84,1.15,0,.22-.04.45-.12.65-.01.04-.03.06-.05.06-.04,0-.2-.05-.47-.05-.09,0-.17,0-.25.02,0,.04.01.08.02.13.07-.01.15-.02.23-.02.12,0,.24.01.36.03.04,0,.06.03.06.05,0,.01-.01.03-.03.06-.17.31-.42.53-.67.56-.1.56-.36,1.1-.78,1.51.2.19.47.31.78.31.4,0,.82-.19,1.1-.61.21-.32.34-.81.34-1.39,0-.12,0-.18,0-.23,0-.03,0-.03.02-.03.1,0,.47.19.8.19.2,0,.36-.08.36-.23,0-.09-.06-.15-.17-.15-.12,0-.18.08-.5.08-.15,0-.31-.02-.45-.04-.06-.01-.07-.03-.08-.08-.06-.49-.23-.95-.47-1.43-.01-.02-.02-.04-.02-.06,0-.03.01-.04.03-.04h0Z"/>
      </g>
      <path id="e" class="cls-4" d="M45.49,199.83s-.06.03-.06.08c0,.06.03.1.03.21,0,.51-.52.92-1.29.92-.56,0-.86-.27-.86-.55,0-.17.14-.35.44-.35.25,0,.42.07.58.07.13,0,.19-.06.19-.14,0-.07-.06-.12-.17-.12-.07,0-.12.02-.19.02-.35,0-.44-.37-.44-.68,0-.67.34-1.24.63-1.24.15,0,.2.1.2.19,0,.15-.14.2-.28.35-.11.12-.23.27-.23.54,0,.43.33.74.78.74.55,0,.86-.43.86-.87,0-.52-.45-1.07-1.52-1.07-.51,0-.97.12-1.29.32.14.2.22.45.22.73,0,.3-.1.57-.28.77.18.1.42.18.73.22.03,0,.05.01.05.04s-.05.04-.11.04c-.24,0-.52.03-.79.11.1.2.16.44.16.72,0,.53-.22,1-.59,1.36.28.16.64.26,1.03.26,1.41,0,2.28-1.14,2.28-2.35,0-.12-.02-.31-.1-.31h0Z"/>
      <path id="s" class="cls-4" d="M41.48,199.96c0-.13-.09-.27-.26-.27-.21,0-.31.21-.42.35-.16.21-.43.45-.86.45-.55,0-.97-.4-.97-.98,0-1,1.2-1.58,2.14-1.58.74,0,1.54.35,1.54,1.05,0,.43-.31.69-.66.69s-.66-.26-.66-.64c0-.19.07-.4.07-.58,0-.28-.19-.41-.41-.41-.29,0-.49.22-.49.52,0,.39.32.68.75.93.62.35,1.17.67,1.17,1.39,0,.92-.9,1.62-2.01,1.62-1.07,0-1.83-.66-1.83-1.71,0-.51.18-.93.28-.93.02,0,.04.02.04.05,0,.07-.08.13-.08.32,0,.42.42.66,1.03.66.95,0,1.61-.58,1.61-.95h0Z"/>
    </g>
  </g>
</svg>